<?xml version="1.0" standalone="no"?>
<!DOCTYPE svg PUBLIC "-//W3C//DTD SVG 1.1//EN" "http://www.w3.org/Graphics/SVG/1.1/DTD/svg11.dtd">
<svg xmlns="http://www.w3.org/2000/svg">
<metadata>Copyright (C) 2021 by original authors @ fontello.com</metadata>
<defs>
<font id="md-icons" horiz-adv-x="1000" >
<font-face font-family="md-icons" font-weight="400" font-stretch="normal" units-per-em="1000" ascent="850" descent="-150" />
<missing-glyph horiz-adv-x="1000" />
<glyph glyph-name="calendar-1" unicode="&#xe800;" d="M897 710h-11v-104c0-16-13-28-28-28-16 0-29 12-29 28 0 32 0 119 0 151 0 15-12 28-28 28-15 0-28-13-28-28v-47h-188v-104c0-16-13-28-28-28s-29 12-29 28c0 32 0 119 0 151 0 15-12 28-28 28-16 0-28-13-28-28v-47h-188v-104c0-16-13-28-29-28s-28 12-28 28c0 32 0 119 0 151 0 15-13 28-28 28-16 0-28-13-28-28v-47h-68c-47 0-85-38-85-85v-111h964c0 63 0 107 0 111 0 47-38 85-85 85z m-879-710c0-47 38-85 85-85h794c47 0 85 38 85 85 0 12 0 276 0 457-18 0-954 0-964 0l0-457 0 0z m693 363h60c16 0 28-12 28-28 0-16-12-28-28-28h-60c-16 0-28 12-28 28 0 16 12 28 28 28z m0-120h60c16 0 28-13 28-28 0-16-12-29-28-29h-60c-16 0-28 13-28 29 0 15 12 28 28 28z m0-121h60c16 0 28-12 28-28 0-16-12-28-28-28h-60c-16 0-28 12-28 28 0 16 12 28 28 28z m-241 241h60c16 0 28-12 28-28 0-16-12-28-28-28h-60c-16 0-28 12-28 28 0 16 12 28 28 28z m0-120h60c16 0 28-13 28-28 0-16-12-29-28-29h-60c-16 0-28 13-28 29 0 15 12 28 28 28z m0-121h60c16 0 28-12 28-28 0-16-12-28-28-28h-60c-16 0-28 12-28 28 0 16 12 28 28 28z m-241 241h60c16 0 28-12 28-28 0-16-12-28-28-28h-60c-16 0-28 12-28 28 0 16 12 28 28 28z m0-120h60c16 0 28-13 28-28 0-16-12-29-28-29h-60c-16 0-28 13-28 29 0 15 12 28 28 28z m0-121h60c16 0 28-12 28-28 0-16-12-28-28-28h-60c-16 0-28 12-28 28 0 16 12 28 28 28z" horiz-adv-x="1000" />

<glyph glyph-name="calendar-2" unicode="&#xe801;" d="M202 335c0 16 13 28 28 28h60c16 0 28-12 28-28s-12-28-28-28h-60c-15 0-28 13-28 28z m28-148h60c16 0 28 13 28 28s-12 28-28 28h-60c-15 0-28-12-28-28s13-28 28-28z m0-120h60c16 0 28 13 28 28 0 16-12 28-28 28h-60c-15 0-28-12-28-28 0-15 13-28 28-28z m240 240h60c16 0 28 13 28 28 0 16-12 28-28 28h-60c-15 0-28-12-28-28s13-28 28-28z m0-120h60c16 0 28 13 28 28s-12 28-28 28h-60c-15 0-28-12-28-28s13-28 28-28z m0-120h60c16 0 28 13 28 28 0 16-12 28-28 28h-60c-15 0-28-12-28-28 0-15 13-28 28-28z m240 240h60c15 0 28 13 28 28 0 16-13 28-28 28h-60c-16 0-28-12-28-28s12-28 28-28z m0-120h60c15 0 28 13 28 28s-13 28-28 28h-60c-16 0-28-12-28-28s12-28 28-28z m0-120h60c15 0 28 13 28 28 0 16-13 28-28 28h-60c-16 0-28-12-28-28 0-15 12-28 28-28z m269 556c0-15 0-603 0-621 0-47-37-85-84-85h-790c-46 0-84 38-84 85v621c0 47 38 85 84 85h67v46c0 16 13 29 28 29s29-13 29-29v-46h243v46c0 16 13 29 28 29 16 0 28-13 28-29v-46h244v46c0 16 12 29 28 29 15 0 28-13 28-29v-46h67c47 0 84-38 84-85z m-56-166h-846v-455c0-16 13-28 28-28h790c16 0 28 12 28 28l0 455 0 0z m0 166c0 16-12 28-28 28h-67v-46c0-16-13-28-28-28-16 0-28 12-28 28v46h-244v-46c0-16-12-28-28-28s-28 12-28 28v46h-243v-46c0-16-13-28-29-28s-28 12-28 28v46h-67c-15 0-28-12-28-28v-110h846l0 110 0 0z" horiz-adv-x="1000" />

<glyph glyph-name="calendar-3" unicode="&#xe802;" d="M371 301v-75c0-12-10-22-22-22h-75c-12 0-21 10-21 22v75c0 12 9 21 21 21h75c12 0 22-9 22-21z m167 21h-76c-12 0-21-9-21-21v-75c0-12 9-22 21-22h76c12 0 21 10 21 22v75c0 12-9 21-21 21z m188 0h-75c-12 0-22-9-22-21v-75c0-12 10-22 22-22h75c12 0 21 10 21 22v75c0 12-9 21-21 21z m-377-188h-75c-12 0-21-9-21-21v-76c0-12 9-21 21-21h75c12 0 22 9 22 21v76c0 12-10 21-22 21z m189 0h-76c-12 0-21-9-21-21v-76c0-12 9-21 21-21h76c12 0 21 9 21 21v76c0 12-9 21-21 21z m188 0h-75c-12 0-22-9-22-21v-76c0-12 10-21 22-21h75c12 0 21 9 21 21v76c0 12-9 21-21 21z m239 500v-674c0-47-38-85-85-85h-760c-47 0-85 38-85 85v674c0 47 38 84 83 86v-115c0-52 42-94 94-94h60c51 0 94 42 94 94v115h268v-115c0-52 43-94 95-94h59c52 0 94 42 94 94v115c46-2 83-39 83-86z m-110-632l0 349c0 20-17 36-37 36h-637c-21 0-37-16-37-36v-349c0-20 16-37 37-37h637c20 0 37 17 37 37z m-643 570h59c17 0 32 15 32 33v188c0 18-15 32-32 32h-59c-18 0-32-14-32-32v-188c0-18 14-33 32-33z m516 0h59c17 0 32 15 32 33v188c0 18-15 32-32 32h-59c-18 0-32-14-32-32v-188c0-18 14-33 32-33z" horiz-adv-x="1000" />

<glyph glyph-name="calendar-4" unicode="&#xe803;" d="M927 282v465c0 15-13 28-29 28h-143v30c0 16-13 28-28 28s-29-12-29-28v-30h-113v30c0 16-13 28-28 28s-29-12-29-28v-30h-113v30c0 16-13 28-28 28s-29-12-29-28v-30h-113v30c0 16-13 28-28 28-16 0-28-12-28-28v-30h-144c-16 0-28-13-28-28v-739c0-15 12-28 28-28h472c45-68 123-113 211-113 141 0 255 114 255 255 0 60-21 116-56 160z m-854 436h116v-28c0-16 12-28 28-28 15 0 28 12 28 28v28h113v-28c0-16 13-28 29-28 15 0 28 12 28 28v28h113v-28c0-16 13-28 29-28s28 12 28 28v28h113v-28c0-16 13-28 29-28 15 0 28 12 28 28v28h115v-113h-797v113z m442-458c-4 2-8 3-13 3h-57c-15 0-28-12-28-28 0-16 13-28 28-28h43c-6-18-11-37-13-57h-30c-15 0-28-13-28-28s13-29 28-29h30c2-19 7-38 13-56h-415v511h797v-215c-40 28-89 43-142 43-89 0-168-46-213-116z m213-337c-109 0-198 89-198 199 0 109 89 198 198 198s199-89 199-198c0-110-89-199-199-199z m142 199c0-16-13-29-28-29h-114c-15 0-28 13-28 29v113c0 16 13 28 28 28 16 0 29-12 29-28v-85h85c15 0 28-13 28-28z m-568 339c0-15-13-28-29-28h-56c-16 0-28 13-28 28 0 16 12 29 28 29h56c16 0 29-13 29-29z m0-113c0-15-13-28-29-28h-56c-16 0-28 13-28 28s12 28 28 28h56c16 0 29-12 29-28z m0-113c0-16-13-28-29-28h-56c-16 0-28 12-28 28 0 16 12 28 28 28h56c16 0 29-12 29-28z m228 226c0-15-12-28-28-28h-57c-15 0-28 13-28 28 0 16 13 29 28 29h57c16 0 28-13 28-29z m0-113c0-15-12-28-28-28h-57c-15 0-28 13-28 28s13 28 28 28h57c16 0 28-12 28-28z m-228-226c0-16-13-29-29-29h-56c-16 0-28 13-28 29s12 28 28 28h56c16 0 29-13 29-28z m342 339c0 16 12 29 28 29h56c16 0 29-13 29-29 0-15-13-28-29-28h-56c-16 0-28 13-28 28z" horiz-adv-x="1000" />

<glyph glyph-name="calendar-5" unicode="&#xe804;" d="M543 148c0-41 34-74 75-74h87c42 0 75 33 75 74v88c0 41-33 75-75 75h-87c-41 0-75-34-75-75v-88l0 0z m75 88h87l1-88c0 0 0 0-1 0h-87v88z m162 200c0-21-17-37-37-37-21 0-38 16-38 37s17 37 38 37c20 0 37-16 37-37z m-200-37c-20 0-37 16-37 37s17 37 37 37c21 0 38-16 38-37s-17-37-38-37z m323-191v396c0 41-33 75-74 75h-49v-38c0-20-17-37-37-37s-38 17-38 37v38h-169v-38c0-20-17-37-38-37-20 0-37 17-37 37v38h-168v-38c0-20-17-37-38-37-20 0-37 17-37 37v38h-47c-41 0-74-34-74-75v-583c0-41 33-74 74-74h658c41 0 74 33 74 74 0 21 17 38 38 38s37-17 37-38c0-82-67-149-149-149h-658c-82 0-149 67-149 149v583c0 82 67 149 149 149h47v38c0 20 17 37 37 37s38-17 38-37v-38h168v38c0 20 17 37 37 37 21 0 38-17 38-37v-38h169v38c0 20 17 37 38 37s37-17 37-37v-38h49c82 0 149-67 149-149v-396c0-21-17-37-37-37-21 0-38 16-38 37z m-610-97c0-21-17-37-38-37s-37 16-37 37c0 21 17 37 37 37s38-16 38-37z m0 325c0-21-17-37-38-37s-37 16-37 37 17 37 37 37 38-16 38-37z m0-163c0-20-17-37-38-37s-37 17-37 37c0 21 17 38 37 38s38-17 38-38z m162 0c0-20-16-37-37-37s-37 17-37 37c0 21 16 38 37 38s37-17 37-38z m0 163c0-21-16-37-37-37s-37 16-37 37 16 37 37 37 37-16 37-37z m0-325c0-21-16-37-37-37s-37 16-37 37c0 21 16 37 37 37s37-16 37-37z" horiz-adv-x="1000" />

<glyph glyph-name="calendar-6" unicode="&#xe805;" d="M197 335c0 16 13 28 29 28h61c16 0 28-12 28-28 0-16-12-29-28-29h-61c-16 0-29 13-29 29z m29-151h61c16 0 28 13 28 29 0 16-12 29-28 29h-61c-16 0-29-13-29-29 0-16 13-29 29-29z m0-121h61c16 0 28 12 28 28 0 16-12 29-28 29h-61c-16 0-29-13-29-29 0-16 13-28 29-28z m244 243h61c15 0 28 13 28 29 0 16-13 28-28 28h-61c-16 0-29-12-29-28 0-16 13-29 29-29z m0-122h61c15 0 28 13 28 29 0 16-13 29-28 29h-61c-16 0-29-13-29-29 0-16 13-29 29-29z m0-121h61c15 0 28 12 28 28 0 16-13 29-28 29h-61c-16 0-29-13-29-29 0-16 13-28 29-28z m243 243h61c16 0 29 13 29 29 0 16-13 28-29 28h-61c-15 0-28-12-28-28 0-16 13-29 28-29z m0-122h61c16 0 29 13 29 29 0 16-13 29-29 29h-61c-15 0-28-13-28-29 0-16 13-29 28-29z m0-121h61c16 0 29 12 29 28 0 16-13 29-29 29h-61c-15 0-28-13-28-29 0-16 13-28 28-28z m275 565c0-16 0-614 0-632 0-47-39-86-86-86h-804c-47 0-85 38-85 86v632c0 47 38 86 85 86h69v47c0 16 13 29 28 29 16 0 29-13 29-29v-47h247v47c0 16 13 29 29 29s29-13 29-29v-47h247v47c0 16 13 29 29 29 16 0 28-13 28-29v-47h69c47 0 86-39 86-86z m-58-169h-860v-463c0-16 12-29 28-29h804c16 0 28 13 28 29l0 463 0 0z m0 169c0 16-12 29-28 29h-69v-48c0-16-12-29-28-29-16 0-29 13-29 29v48h-247v-48c0-16-13-29-29-29s-29 13-29 29v48h-247v-48c0-16-13-29-29-29-15 0-28 13-28 29v48h-69c-16 0-28-13-28-29v-112h860v112h0z" horiz-adv-x="1000" />

<glyph glyph-name="calendar-7" unicode="&#xe806;" d="M955 718h-141v29c0 15-13 28-29 28-15 0-28-13-28-28v-29h-144v29c0 15-12 28-28 28-16 0-28-13-28-28v-29h-142v29c0 15-13 28-28 28s-29-13-29-28v-29h-143c-16 0-29-12-29-28v-170c0-209-86-369-159-432-9-7-13-20-9-31 4-11 15-19 27-19h141v-85c0-15 13-28 29-28h740c16 0 29 13 29 28v737c0 16-13 28-29 28z m-846-623c87 111 129 256 134 397h683c-6-180-75-321-152-397h-665z m818-113h-684v56h542c7 0 13 3 18 7 34 28 87 96 124 182v-245l0 0z m0 566h-684v114h115v-29c0-15 13-28 29-28s28 13 28 28v29h142v-29c0-15 12-28 28-28 16 0 28 13 28 28v29h144v-29c0-15 13-28 28-28 16 0 29 13 29 28v29h113l0-114 0 0z" horiz-adv-x="1000" />

<glyph glyph-name="calendar-8" unicode="&#xe807;" d="M879 760h-92v51c0 17-14 31-31 31-17 0-31-14-31-31v-51h-450v51c0 17-14 31-31 31s-31-14-31-31v-51h-92c-62 0-113-51-113-113v-676c0-62 51-113 113-113h758c62 0 113 51 113 113v676c0 62-51 113-113 113z m51-789c0-28-23-51-51-51h-758c-28 0-51 23-51 51v481h860v-481z m0 543h-860v133c0 28 23 51 51 51h92v-71c0-17 14-31 31-31s31 14 31 31v71h450v-71c0-17 14-31 31-31 17 0 31 14 31 31v71h92c28 0 51-23 51-51l0-133 0 0z" horiz-adv-x="1000" />

<glyph glyph-name="clock-1" unicode="&#xe808;" d="M500 840c-270 0-490-220-490-490 0-270 220-490 490-490 270 0 490 220 490 490 0 270-220 490-490 490z m0-919c-236 0-429 193-429 429s193 429 429 429 429-193 429-429-193-429-429-429z m31 442l174-175-43-43-193 192v319h62v-293z" horiz-adv-x="1000" />

<glyph glyph-name="clock-2" unicode="&#xe809;" d="M500 830c-265 0-480-215-480-480s215-480 480-480 480 215 480 480-215 480-480 480z m228-728c-7-8-18-12-28-12-10 0-20 4-28 12l-200 200c-8 7-12 17-12 28v260c0 22 18 40 40 40s40-18 40-40v-243l188-189c16-15 16-41 0-56z" horiz-adv-x="1000" />

<glyph glyph-name="clock-3" unicode="&#xe80a;" d="M500 756c-231 0-419-188-419-419 0-115 46-219 121-294-13-17-34-44-62-80-15-19-11-48 8-63 8-6 18-10 28-10 13 0 27 6 36 18 0 0 37 48 60 78 66-43 144-68 228-68 84 0 162 25 228 68 23-30 61-78 61-78 8-12 22-18 35-18 10 0 20 4 28 10 20 15 23 44 8 63-28 36-49 63-62 80 75 75 121 179 121 294 0 231-188 419-419 419z m0-757c-186 0-338 151-338 338 0 186 152 338 338 338 187 0 338-152 338-338 0-187-151-338-338-338z m63 338c0-35-28-64-63-64-24 0-45 14-56 35l-197 0c-15 0-27 12-27 27 0 15 12 27 27 27l195 0c6 14 17 26 32 32l0 117c0 15 12 27 27 27 15 0 27-12 27-27l0-117c21-11 35-32 35-57z m-268 432l-233-231c-56 65-53 163 9 224 61 61 159 63 224 7z m643-231l-232 231c64 56 162 54 224-7 61-61 64-159 8-224z" horiz-adv-x="1000" />

<glyph glyph-name="clock-4" unicode="&#xe80b;" d="M707 215c-5-7-14-9-21-4l-201 131v313c0 8 7 15 15 15s15-7 15-15v-297l187-122v0c7-4 9-14 5-21z m281 135c0-269-219-488-488-488s-487 219-487 488 218 488 487 488 488-219 488-488z m-31-15h-46c-8 0-15 7-15 15s7 15 15 15h46c-4 111-48 216-123 297l-29-29c-6-6-16-6-22 0-6 6-6 16 0 22l29 29c-81 75-186 119-297 123v-46c0-8-7-15-15-15s-15 7-15 15v46c-111-4-216-48-297-123l29-29c6-6 6-16 0-22s-16-6-22 0l-28 29c-76-81-120-186-124-297h46c8 0 15-7 15-15s-7-15-15-15h-46c4-111 48-216 123-297l29 29c6 6 16 6 22 0 6-6 6-16 0-22l-29-28c81-76 186-120 297-124v46c0 8 7 15 15 15s15-7 15-15v-46c111 4 216 48 297 123l-29 29c-6 6-6 16 0 22 6 6 16 6 22 0l29-29c75 81 119 186 123 297z" horiz-adv-x="1000" />

<glyph glyph-name="clock-5" unicode="&#xe80c;" d="M500 843c-272 0-492-221-492-493 0-272 220-493 492-493 272 0 493 221 493 493 0 272-221 493-493 493z m327-779l-30 30c-11 11-29 11-41 0-11-12-11-30 0-41l30-30c-69-61-159-100-257-107v51c0 15-13 28-29 28s-29-13-29-28v-51c-98 7-187 46-257 107l30 30c11 11 11 29 0 41s-30 11-41 0l-30-30c-61 70-100 159-107 257h51c16 0 28 13 28 29s-12 29-28 29h-51c7 98 46 187 107 257l30-30c11-11 29-11 41 0s11 30 0 41l-30 30c70 61 159 100 257 107v-51c0-15 13-28 29-28s29 13 29 28v51c98-7 187-46 257-107l-30-30c-11-11-11-29 0-41 12-11 30-11 41 0l30 30c61-69 100-159 107-257h-70c-16 0-29-13-29-29s13-29 29-29h70c-7-98-46-187-107-257z m-116 286c0-16-13-29-29-29h-182c-16 0-29 13-29 29v268c0 16 13 29 29 29s29-13 29-29v-239h153c16 0 29-13 29-29z" horiz-adv-x="1000" />

<glyph glyph-name="down-arrow-1" unicode="&#xe80d;" d="M952 506l-405-406c-13-12-30-19-47-19s-34 7-47 19l-405 406c-26 26-26 68 0 94 25 25 67 25 93 0l359-359 359 359c26 25 68 25 93 0 26-26 26-68 0-94z" horiz-adv-x="1000" />

<glyph glyph-name="down-arrow-2" unicode="&#xe80e;" d="M981 547l-452-452c-8-8-18-12-29-12s-21 4-29 12l-451 452c-16 16-16 42 0 58s42 16 58 0l422-423 422 423c17 16 42 16 59 0 16-16 16-42 0-58z" horiz-adv-x="1000" />

<glyph glyph-name="email-1" unicode="&#xe80f;" d="M906 725h-812c-48 0-86-39-86-86v-578c0-47 38-86 86-86h812c48 0 87 39 87 86v578c0 47-39 86-87 86z m-12-58l-392-392-396 392h788z m-829-594v554l278-276-278-278z m41-40l278 278 98-97c11-11 29-11 40 0l95 95 277-276-788 0 0 0z m829 40l-277 277 277 277v-554z" horiz-adv-x="1000" />

<glyph glyph-name="email-2" unicode="&#xe810;" d="M344 350l-320-321c-6 12-9 24-9 37v568c0 13 3 26 9 37l320-321z m251 20l0 0c0 0 0 0 0 0l341 341c-11 5-23 8-36 8h-800c-13 0-25-3-36-8l434-434 97 93z m-77-154c-5-5-13-8-20-8-7 0-14 3-20 8l-93 94-321-321c11-5 23-8 36-8h800c13 0 25 3 36 8l-320 321-98-94z m458 455l-320-321 320-321c6 12 9 24 9 37v568c0 13-3 26-9 37z" horiz-adv-x="1000" />

<glyph glyph-name="email-3" unicode="&#xe811;" d="M898 718h-796c-51 0-92-42-92-92v-552c0-50 41-92 92-92h796c51 0 92 42 92 92v552c0 50-41 92-92 92z m-796-62h796c4 0 8-1 12-2l-410-355-410 355c4 1 8 2 12 2z m827-582c0-16-14-30-31-30h-796c-17 0-31 14-31 30v515l409-354c6-5 13-7 20-7s14 2 20 7l409 354v-515z" horiz-adv-x="1000" />

<glyph glyph-name="email-4" unicode="&#xe812;" d="M40 652c-8 7-9 19-3 27 16 20 39 31 63 31h800c25 0 47-11 63-31 6-8 5-20-3-27-132-112-363-308-431-370-9-8-19-12-29-12-10 0-20 4-29 13-68 61-299 257-431 369z m928-61c-7 3-15 2-21-3-146-124-332-282-391-335-33-30-79-30-112 0-62 56-272 234-391 335-6 5-14 6-21 3-7-3-12-10-12-18v-503c0-44 36-80 80-80h800c44 0 80 36 80 80v503c0 8-4 15-12 18z" horiz-adv-x="1000" />

<glyph glyph-name="facebook-1" unicode="&#xe813;" d="M569 584v-116h153l-21-168h-132v-423h-168v423h-137v168h137v133c0 144 85 222 210 222 59 0 111-5 126-7v-150h-87c-68 0-81-33-81-82z" horiz-adv-x="1000" />

<glyph glyph-name="facebook-2" unicode="&#xe814;" d="M694 659h94v171h-171c-15 1-188 4-233-168-1-1-15-42-15-138l-156 0v-180l156 0v-474h239v474h158v181h-158v56c0 36 15 78 86 78z m32-174v-101h-158v-475h-160v475l-156 0v101l157 0-1 20c-2 101 13 144 13 146 39 148 188 140 194 140l133 0v-93h-54c-93 0-126-60-126-117v-96h158z" horiz-adv-x="1000" />

<glyph glyph-name="facebook-3" unicode="&#xe815;" d="M753 798v-142c0-11-9-19-19-19l-82 0c-56 0-67-22-67-66v-90h143c5 0 10-2 14-5 3-4 5-9 5-14l0-153c0-11-8-20-19-20h-143v-388c0-10-8-19-19-19h-159c-10 0-19 9-19 19v388h-122c-10 0-19 9-19 20v153c0 11 9 19 19 19h122v106c0 140 88 231 225 231l121-1c10 0 19-8 19-19z" horiz-adv-x="1000" />

<glyph glyph-name="facebook-4" unicode="&#xe816;" d="M722 602c16 0 28 12 28 28v166c0 16-12 28-28 28h-166c-108 0-195-87-195-194v-139h-83c-16 0-28-13-28-28v-167c0-15 12-27 28-27h83v-365c0-16 13-28 28-28h167c15 0 27 12 27 28v365h111c14 0 26 9 28 23l28 166c1 8-1 17-7 23-5 6-13 10-21 10h-139v111h139z m-166-167h133l-18-111h-115c-16 0-28-12-28-28v-365h-111v365c0 16-13 28-28 28h-83v111h83c15 0 28 13 28 28v167c0 76 62 139 139 139h138v-112h-138c-16 0-28-12-28-27v-167c0-15 12-28 28-28z" horiz-adv-x="1000" />

<glyph glyph-name="fax-1" unicode="&#xe817;" d="M899 435h-798c-46 0-85-38-85-85v-170c0-47 39-85 85-85h116v28c0 47 38 85 85 85h396c47 0 85-38 85-85v-28h116c46 0 85 38 85 85v170c0 47-39 85-85 85z m-286-142c-15 0-28 13-28 29 0 15 13 28 28 28s29-13 29-28c0-16-13-29-29-29z m114 0c-16 0-29 13-29 29 0 15 13 28 29 28 15 0 28-13 28-28 0-16-13-29-28-29z m25 369h-110v110c55-11 99-55 110-110z m3-170h-510v255c0 15 13 28 28 28h312v-142c0-15 13-28 28-28h142v-113z m-57-340h-396c-16 0-29-13-29-29v-170c0-15 13-28 29-28h396c16 0 29 13 29 28v170c0 16-13 29-29 29z m-85-142h-226c-16 0-29 13-29 28 0 16 13 29 29 29h226c16 0 29-13 29-29 0-15-13-28-29-28z" horiz-adv-x="1000" />

<glyph glyph-name="fax-2" unicode="&#xe818;" d="M887 433h-139v192c0 76-62 138-138 138h-330c-15 0-28-12-28-27v-303h-139c-46 0-83-37-83-83v-165c0-46 37-83 83-83h139v-138c0-15 13-27 28-27h440c16 0 28 12 28 27v138h139c46 0 83 37 83 83v165c0 46-37 83-83 83z m-249 270c23-8 42-27 50-50h-50v50z m-331 5h276v-83c0-15 12-27 27-27h83v-165h-386v275z m386-716h-386v165h386v-165z m222 193c0-15-12-28-28-28h-139v28c0 15-12 27-28 27h-440c-15 0-28-12-28-27v-28h-139c-16 0-28 13-28 28v165c0 15 12 28 28 28h774c16 0 28-13 28-28v-165z m-167 110c0-15-12-28-28-28-15 0-27 13-27 28 0 15 12 28 27 28 16 0 28-13 28-28z m-110 0c0-15-13-28-28-28-15 0-27 13-27 28 0 15 12 28 27 28 15 0 28-13 28-28z m-276-220c0 15 13 27 28 27h220c15 0 28-12 28-27s-13-28-28-28h-220c-15 0-28 12-28 28z" horiz-adv-x="1000" />

<glyph glyph-name="fax-3" unicode="&#xe819;" d="M846 626v139h-453v-139h-142c-24 25-57 40-94 40-74 0-133-60-133-133v-385c0-74 59-134 133-134 37 0 70 16 94 40h142v-119h453v119h130v572h-130z m-612-478c0-43-35-78-77-78-43 0-78 35-78 78v385c0 42 35 77 78 77s77-35 77-77v-385z m215 561h341v-83h-341v83z m341-718h-341v63h341v-63z m131 119h-637c4 12 6 24 6 38v385c0 13-2 25-6 37h637v-460z m-95 377h-413v-175h413v175z m-56-119h-302v63h302v-63z m-302-167h-55v56h55v-56z m64 56h56v-56h-56v56l0 0z m119 0h56v-56h-56v56z m119 0h56v-56h-56v56z" horiz-adv-x="1000" />

<glyph glyph-name="home-1" unicode="&#xe81a;" d="M961 413c0 0 0 1 0 1l-397 397c-17 17-40 26-64 26-24 0-46-9-63-26l-398-397c0 0 0-1 0-1-35-35-35-91 0-126 16-16 37-26 59-27 1 0 2 0 3 0h16v-292c0-58 47-105 105-105h156c15 0 28 12 28 28v230c0 26 22 48 48 48h92c26 0 48-22 48-48v-230c0-16 13-28 28-28h156c58 0 105 47 105 105v292h15c24 0 46 10 63 27 35 35 35 91 0 126z m-40-86c-6-6-15-10-23-10h-44c-15 0-28-12-28-28v-321c0-27-22-48-48-48h-127v201c0 58-47 105-105 105h-92c-58 0-105-47-105-105v-201h-127c-26 0-48 21-48 48v321c0 16-13 28-28 28h-43c0 0-1 0-1 0-9 1-17 4-23 10-12 13-12 33 0 46 0 0 0 0 0 0l0 0 398 398c6 6 14 9 23 9 9 0 17-3 23-9l398-398c0 0 0 0 0 0 13-13 12-33 0-46z" horiz-adv-x="1000" />

<glyph glyph-name="home-2" unicode="&#xe81b;" d="M978 405c-5-6-13-10-21-10-5 0-10 2-14 5l-443 324-443-324c-11-8-26-6-35 5-8 12-5 27 6 35l457 335c9 7 21 7 30 0l457-335c11-8 14-23 6-35z m-127-11c-14 0-25-11-25-25v-399h-201v218c0 69-56 125-125 125s-125-56-125-125v-218h-201v399c0 14-11 25-25 25s-25-11-25-25v-424c0-14 11-25 25-25h251c13 0 24 10 25 23 0 1 0 1 0 2v243c0 41 34 75 75 75s75-34 75-75v-243c0-1 0-1 0-2 1-13 12-23 25-23h251c14 0 25 11 25 25v424c0 14-11 25-25 25z" horiz-adv-x="1000" />

<glyph glyph-name="home-3" unicode="&#xe81c;" d="M979 347c-7-19-25-32-46-32h-69v-395c0-16-13-29-29-29h-237c-16 0-28 13-28 29v240h-140v-240c0-16-12-29-28-29h-237c-16 0-29 13-29 29v395h-69c-20 0-39 13-46 32-7 19-2 40 13 54l433 395c19 17 47 17 66 0l433-395c16-14 21-35 13-54z m-94 377c0 15-13 28-29 28h-190l219-199v171z" horiz-adv-x="1000" />

<glyph glyph-name="home-4" unicode="&#xe81d;" d="M979 362l-13-14c-18-20-41-28-52-18-11 10-21 18-21 18v-425c0-27-21-48-47-48h-182c-27 0-46 21-45 48v301h-219v-301c0-27-22-48-48-48h-172c-26 0-48 21-48 48v431l-33-29c-18-17-47-14-66 5l-11 11c-18 19-17 49 2 67l441 404c19 18 51 18 71 1l439-384c20-18 21-48 4-67z" horiz-adv-x="1000" />

<glyph glyph-name="instagram-1" unicode="&#xe81e;" d="M718 825h-436c-142 0-257-115-257-257v-436c0-142 115-257 257-257h436c142 0 257 115 257 257v436c0 142-115 257-257 257z m-218-735c-143 0-260 117-260 260s117 260 260 260 260-117 260-260-117-260-260-260z m266 459c-42 0-77 34-77 76s35 77 77 77 77-34 77-77-35-76-77-76z m-62-199c0-112-91-204-204-204-112 0-204 92-204 204 0 113 92 204 204 204 113 0 204-91 204-204z m83 275c0-11-9-21-21-21s-21 10-21 21 9 21 21 21c12 0 21-9 21-21z" horiz-adv-x="1000" />

<glyph glyph-name="instagram-2" unicode="&#xe81f;" d="M500 597c-136 0-246-111-246-247 0-136 110-246 246-246 136 0 247 110 247 246 0 136-111 247-247 247z m0-407c-88 0-160 72-160 160s72 160 160 160 160-71 160-160c0-88-71-160-160-160z m477 358c-8 169-98 271-279 279-88 4-307 4-396 0-77-4-146-22-201-78-92-92-80-216-80-399 0-186-11-308 80-399 93-93 219-81 399-81 185 0 249 0 314 26 89 34 156 114 163 257 4 88 4 307 0 395z m-139-536c-61-60-145-55-339-55-200 0-280-3-339 56-67 67-55 175-55 338 0 221-23 380 199 391 51 2 66 3 194 3l2-1c213 0 381 22 391-200 2-50 3-66 3-194 0-197 3-278-56-338z m-24 594c0-32-26-57-58-57-31 0-57 25-57 57s25 58 57 58c32 0 58-26 58-58z" horiz-adv-x="1000" />

<glyph glyph-name="instagram-3" unicode="&#xe820;" d="M944 793c-25 25-54 37-87 37h-714c-33 0-62-12-86-37-25-24-37-53-37-86v-714c0-33 12-62 37-86 24-25 53-37 86-37h714c33 0 62 12 87 37 24 24 36 53 36 86v714c0 33-12 62-36 86z m-579-309c38 36 83 55 136 55 53 0 98-19 136-55 38-36 57-80 57-132 0-52-19-96-57-132-38-37-83-55-136-55-53 0-98 18-136 55-38 36-57 80-57 132 0 52 19 96 57 132z m506-465c0-11-4-20-11-27-8-8-17-11-27-11h-668c-11 0-20 3-27 11-7 7-11 16-11 27v405h88c-8-26-12-54-12-82 0-80 29-148 87-205 58-56 129-84 211-84 54 0 104 13 150 38 45 26 82 61 108 106 27 44 40 92 40 145 0 28-4 56-12 82h84v-405z m0 558c0-12-4-22-12-31-9-8-19-12-31-12h-109c-12 0-22 4-30 12s-13 19-13 31v103c0 11 4 22 13 30 8 9 18 13 30 13h109c12 0 22-4 31-13 8-8 12-19 12-30v-103z" horiz-adv-x="1000" />

<glyph glyph-name="instagram-4" unicode="&#xe821;" d="M834 830h-668c-80 0-146-65-146-146v-250-418c0-81 66-146 146-146h668c80 0 146 65 146 146v418 250c0 81-66 146-146 146z m104-814c0-58-47-104-104-104h-668c-57 0-104 46-104 104v397h174c0-2 0-4-1-5-1-7-3-14-4-21 0-3 0-6-1-9-1-9-1-18-1-28 0-150 121-271 271-271s271 121 271 271c0 10 0 19-1 28-1 3-1 6-1 9-1 7-3 14-4 21 0 1-1 3-1 5h174v-397l0 0z m-668 334c0 26 5 52 14 77 32 91 119 153 216 153 12 0 24-1 36-3 76-12 142-62 174-134 2-5 4-11 6-16 0 0 0 0 0 0 0 0 0 0 0-1 9-24 14-50 14-76 0-127-103-230-230-230-127 0-230 103-230 230z m668 104h-188c0 1-1 2-1 3-1 3-3 6-4 9-2 3-3 7-5 10-1 3-3 6-5 9-1 3-3 6-5 9-2 3-4 5-5 8-2 3-4 6-7 9-1 2-3 5-5 7-3 3-5 6-7 9-2 2-4 4-7 7-2 2-4 5-7 7-2 3-5 5-7 7-2 3-5 5-8 7-2 2-5 4-7 6-3 3-6 5-8 7-3 2-6 4-8 5-3 2-6 4-9 6-3 2-5 4-8 5-3 2-6 4-10 5-2 2-5 3-8 5-3 1-7 3-10 4-3 1-6 3-8 4-4 1-7 3-11 4-3 1-6 2-9 3-3 1-7 2-11 3-3 1-5 2-8 2-4 1-8 2-12 3-3 0-6 1-8 1-5 1-9 1-14 2-2 0-5 0-7 1-7 0-14 0-21 0-7 0-14 0-21-1-2 0-5 0-7 0-4-1-9-1-13-2-3 0-6-1-9-1-4-1-8-2-12-3-3-1-5-1-8-2-4-1-8-2-11-3-3-1-6-2-9-3-4-2-7-3-10-4-3-1-6-3-9-4-3-1-7-3-10-4-3-2-6-3-9-5-3-1-6-3-9-5-2-1-5-3-8-5-3-2-6-4-8-5-3-2-6-4-9-6-2-2-5-4-8-6-2-3-5-5-8-7-2-2-4-4-7-7-2-2-5-4-7-7-3-2-5-4-7-7-2-2-5-5-7-8-2-2-4-5-6-7-2-3-4-6-7-8-2-3-3-6-5-9-2-2-4-5-6-8-2-3-3-6-5-9-2-3-4-6-5-9-2-3-3-6-5-10-1-3-3-5-4-8 0-2-1-3-1-4h-188v230c0 57 47 104 104 104h668c57 0 104-47 104-104v-230h0z m-438-250c81 0 146 65 146 146s-65 146-146 146-146-65-146-146 66-146 146-146z m0 250c58 0 104-46 104-104 0-57-46-104-104-104-57 0-104 47-104 104 0 58 47 104 104 104z m334 251h-63c-11 0-21-10-21-21v-63c0-11 10-21 21-21h63c12 0 21 10 21 21v63c0 11-9 21-21 21z m-21-63h-21v21h21v-21z" horiz-adv-x="1000" />

<glyph glyph-name="like-1" unicode="&#xe822;" d="M896 687c-48 53-115 82-188 82-54 0-104-17-148-51-22-17-42-38-60-62-18 24-38 45-60 62-44 34-93 51-148 51-73 0-140-29-188-82-49-52-75-124-75-201 0-80 30-153 93-230 57-68 139-138 234-219l0 0c33-28 70-59 108-93 10-8 23-13 36-13 13 0 26 5 36 13 39 34 75 65 108 93 95 81 177 151 234 219 64 77 93 150 93 230 0 77-26 149-75 201z m-61-395c-54-65-134-134-227-213-33-28-69-59-108-93-38 34-75 65-108 93l0 0c-93 79-173 148-227 213-56 67-81 127-81 194 0 64 21 122 60 164 38 41 91 64 148 64 42 0 80-13 114-40 31-23 52-53 64-73 6-11 18-17 30-17 12 0 24 6 30 17 12 20 33 50 64 73 34 27 72 40 114 40 57 0 110-23 148-64 39-42 60-100 60-164 0-67-25-127-81-194z" horiz-adv-x="1000" />

<glyph glyph-name="like-2" unicode="&#xe823;" d="M975 496c0-169-135-284-340-459-35-29-74-63-115-99-6-5-13-7-20-7s-14 2-19 7c-41 36-81 70-116 99-205 175-340 290-340 459 0 156 109 273 252 273 52 0 99-16 141-48 40-31 66-70 82-99 16 29 42 68 82 99 42 32 89 48 141 48 144 0 252-117 252-273z" horiz-adv-x="1000" />

<glyph glyph-name="like-3" unicode="&#xe824;" d="M255 86c0-18-14-33-33-33-18 0-33 15-33 33 0 18 15 33 33 33 19 0 33-15 33-33z m679 114c9-12 14-27 14-43 0-27-13-50-33-64 8-12 13-27 13-44 0-42-34-77-77-77h-83-33-108c-78 0-156 18-226 52l-29 14h-30v-37c0-26-21-47-47-47h-235c-26 0-47 21-47 47v462c0 26 21 47 47 47h235c26 0 47-21 47-47v-25h55l94 79c39 33 69 76 85 124 0 0 19 54 19 56 13 30 42 49 74 49 44 0 80-35 80-79 0 0-1-57-1-57 0-46-9-91-28-133l-13-29h203c43 0 78-34 78-77 0-26-14-50-34-64 9-12 14-27 14-43 0-26-13-50-34-64z m-639-199l0 462h-235v-462h235c0 0 0 0 0 0z m645 370c0 16-13 30-30 30h-239c-18 0-23 17-23 17-2 5-1 11 1 17l28 61c16 37 24 75 24 114 0 0 0 57 0 57 0 18-14 32-32 32-12 0-23-7-29-18 0-1-19-55-19-55-19-57-54-107-100-146l-100-84c-5-4-10-5-16-5h-63v-306h35c4 0 7 0 11-2l34-17c64-30 134-46 205-46h108 33 83c16 0 30 13 30 29 0 17-14 30-30 30h-14c-13 0-24 11-24 24 0 13 11 24 24 24h34c16 0 30 13 30 30 0 16-14 30-30 30h-14c-13 0-24 10-24 23s11 24 24 24h34c16 0 29 13 29 30s-13 30-29 30h-14c-14 0-24 10-24 23s10 24 24 24h33c17 0 30 14 30 30z" horiz-adv-x="1000" />

<glyph glyph-name="like-4" unicode="&#xe825;" d="M908 173c13-17 20-38 20-60 0-33-16-63-42-80 13-17 21-38 21-60 0-54-44-98-98-98h-44-129-140c-51 0-101 9-149 27l-110 41v469c106 113 211 230 227 257v115c0 23 18 41 41 41 95 0 172-77 172-172v-52l-32-110h228c54 0 98-44 98-98 0-33-17-63-42-80 13-17 21-38 21-60 0-33-17-63-42-80z m-879-219h152v426h-152v-426z" horiz-adv-x="1000" />

<glyph glyph-name="linkedin-1" unicode="&#xe826;" d="M984 221v-355h0v0h-200v315c0 75-2 171-105 171-104 0-120-82-120-166v-320h-201v646h193v-88h3c27 51 92 105 190 105 203 0 240-134 240-308z m-952-355h201v646h-201v-646z m100 968c-64 0-116-52-116-116 0-64 52-117 116-117s116 53 116 117c0 64-52 116-116 116z" horiz-adv-x="1000" />

<glyph glyph-name="linkedin-2" unicode="&#xe827;" d="M975 323c-8 126-114 223-244 223-58 0-113-20-157-56v36h-236v-648h246v354c0 40 33 73 73 73 40 0 72-33 72-73l1-354h246v444l-1 1z m-190-389l0 298c0 71-57 129-128 129-71 0-128-58-128-129v-298h-135v536h124v-79l45-1 8 13c35 55 95 87 160 87 104 0 187-79 189-180l0-376h-135z m-623 888c-76 0-138-62-138-138 0-76 62-137 138-137 76 0 138 61 138 137 0 76-62 138-138 138z m0-220c-45 0-82 37-82 82s37 82 82 82 82-36 82-82-37-82-82-82z m-123-724h246v648h-246v-648z m55 592h135v-536h-135v536z" horiz-adv-x="1000" />

<glyph glyph-name="login-1" unicode="&#xe828;" d="M980 740v-780c0-16-14-30-30-30h-720c-16 0-30 14-30 30v150h60v-120h660v720h-660v-120h-60v150c0 16 14 30 30 30h720c16 0 30-14 30-30z m-603-549l42-42 201 201-201 201-42-42 128-129h-484v-60h484l-128-129z" horiz-adv-x="1000" />

<glyph glyph-name="login-2" unicode="&#xe829;" d="M505 313h-485v75h485l-86 86 53 53 177-177-177-177-53 53 86 87z m363 517h-452c-62 0-113-50-113-112v-150h75v150c0 20 17 37 38 37h452c20 0 37-17 37-37v-736c0-20-17-37-37-37h-452c-21 0-38 17-38 37v151h-75v-151c0-62 51-112 113-112h452c62 0 112 50 112 112v736c0 62-50 112-112 112z" horiz-adv-x="1000" />

<glyph glyph-name="login-3" unicode="&#xe82a;" d="M579 319h-518c-17 0-31 14-31 31s14 31 31 31h518l-111 111c-12 12-12 31 0 43 12 12 32 12 44 0l163-163c8-8 10-18 8-28 0 0 0 0 0 0 0-1 0-2 0-3 0 0-1 0-1-1 0 0 0-1 0-2-1 0-1 0-1-1 0 0 0-1-1-1 0-1 0-1 0-2-1 0-1 0-1-1-1-1-1-1-2-2 0 0 0 0 0 0-1-1-1-2-2-3l-163-163c-6-6-14-9-22-9-8 0-16 3-22 9-12 12-12 31 0 43l111 111z m-59 481c-186 0-350-112-418-285-6-16 2-34 17-40 16-6 34 1 40 17 59 150 201 246 361 246 215 0 389-174 389-388s-174-388-389-388c-160 0-302 96-361 246-6 16-24 23-40 17-15-6-23-24-17-39 68-174 232-286 418-286 248 0 450 202 450 450s-202 450-450 450z" horiz-adv-x="1000" />

<glyph glyph-name="login-4" unicode="&#xe82b;" d="M982 350c0-243-196-440-440-440-162 0-305 88-381 220-8 13-3 31 10 39 14 7 31 3 39-11 66-114 190-192 332-192 212 0 384 173 384 384 0 212-172 384-384 384-142 0-266-77-332-192-8-14-25-18-39-10-13 7-18 25-10 38 76 132 219 220 381 220 244 0 440-197 440-440z m-497 28h-439c-16 0-28-12-28-28 0-16 12-28 28-28h439v56z m101-124l103 73c16 11 16 35 0 46l-103 73c-19 13-44 0-44-23v-146c0-23 25-36 44-23z" horiz-adv-x="1000" />

<glyph glyph-name="map-1" unicode="&#xe82c;" d="M500 823c-183 0-333-149-333-332 0-62 17-123 50-175l264-426c5-8 14-13 24-13 0 0 0 0 0 0 10 0 19 5 23 13l258 430c31 51 47 110 47 171 0 183-149 332-333 332z m238-474l-234-391-240 387c-27 43-42 94-42 146 0 152 125 277 278 277 153 0 278-125 278-277 0-51-14-100-40-142z m-238 308c-92 0-166-75-166-166 0-92 73-167 166-167 94 0 166 76 166 167 0 91-74 166-166 166z m0-278c-61 0-111 50-111 112 0 61 50 111 111 111s111-50 111-111c0-61-48-112-111-112z" horiz-adv-x="1000" />

<glyph glyph-name="map-2" unicode="&#xe82d;" d="M500 837c-186 0-338-152-338-339 0-234 338-635 338-635s338 412 338 635c0 187-151 339-338 339z m102-438c-28-28-65-42-102-42s-74 14-102 42c-56 57-56 148 0 204 27 28 63 43 102 43 39 0 75-15 102-43 56-56 56-147 0-204z" horiz-adv-x="1000" />

<glyph glyph-name="map-3" unicode="&#xe82e;" d="M662 194c103 162 90 142 93 146 38 53 58 116 58 181 0 172-140 314-313 314-172 0-313-142-313-314 0-65 21-129 60-183l91-144c-98-15-264-60-264-158 0-37 23-88 135-128 78-28 182-43 291-43 205 0 426 58 426 171 0 98-166 143-264 158z m-368 175c0 1-1 1-1 2-32 44-49 97-49 150 0 142 115 257 256 257 141 0 256-115 256-257 0-53-16-104-47-148-3-3 12 19-209-327l-206 323z m206-447c-223 0-369 65-369 114 0 32 75 85 241 105l104-163c5-9 14-14 24-14 10 0 19 5 24 14l104 163c167-20 241-73 241-105 0-48-144-114-369-114z m142 599c0 78-64 142-142 142-78 0-142-64-142-142 0-79 64-143 142-143 78 0 142 64 142 143z m-227 0c0 47 38 85 85 85 47 0 85-38 85-85 0-47-38-86-85-86-47 0-85 39-85 86z" horiz-adv-x="1000" />

<glyph glyph-name="map-4" unicode="&#xe82f;" d="M970 76c0-129-236-196-470-196-233 0-470 67-470 196 0 75 80 135 226 169 21 5 42-8 47-29 5-21-8-42-29-47-121-29-166-71-166-93 0-47 157-118 392-118 235 0 392 71 392 118 0 22-44 64-166 93-21 5-34 26-29 47 5 21 26 34 47 29 146-34 226-94 226-169z m-470 431c22 0 39 17 39 39s-17 39-39 39c-22 0-39-18-39-39s17-39 39-39z m-221-123c-42 58-60 129-50 201 17 121 117 219 239 233 78 9 156-16 215-68 58-52 91-126 91-204 0-52-14-102-42-146l-22-35c-49-77-100-157-141-239l-34-68c-7-13-20-21-35-21-15 0-28 8-35 21l-16 32c-52 104-103 204-170 294z m104 162c0-65 52-118 117-118s118 53 118 118c0 65-53 117-118 117s-117-52-117-117z" horiz-adv-x="1000" />

<glyph glyph-name="map-5" unicode="&#xe830;" d="M385 529c0 64 52 116 115 116s115-52 115-116-51-115-115-115-115 52-115 115z m306-444c-17 6-36 11-56 15-60-71-110-121-115-126l-20-19-19 19c-6 5-56 55-116 126-20-4-39-9-55-15-78-28-94-65-94-91 0-26 16-64 94-91 51-19 119-29 190-29 72 0 139 11 191 29 77 27 93 65 93 91 0 26-16 63-93 91z m-333 112c-103 134-158 248-158 329 0 165 135 300 300 300s300-135 300-300c0-80-55-194-158-328-56-73-113-134-142-164-29 29-86 90-142 163z m-29 332c0-94 77-171 171-171 94 0 171 77 171 171 0 95-77 171-171 171-94 0-171-76-171-171z" horiz-adv-x="1000" />

<glyph glyph-name="map-6" unicode="&#xe831;" d="M500 428c65 0 118 53 118 118 0 65-53 117-118 117-65 0-117-52-117-117 0-65 52-118 117-118z m0 157c22 0 39-17 39-39s-17-39-39-39-39 17-39 39 17 39 39 39z m-51-495l16-32c14-28 56-28 70 0l34 68c34 68 66 121 139 236l2 3c11 17 16 25 22 35 27 43 42 93 42 146 0 163-142 291-306 272-122-14-222-111-239-233-10-73 8-144 50-201 57-77 100-154 170-294z m-143 484c12 86 84 156 171 166 117 14 219-77 219-194 0-38-11-73-30-104-6-10-12-18-22-35l-2-3c-74-116-107-171-142-241-61 120-103 193-158 267-30 41-43 92-36 144z m664-498c0-119-211-196-470-196-259 0-470 77-470 196 0 79 89 137 226 169 21 5 42-8 47-29 5-21-8-42-29-47-105-25-166-65-166-93 0-54 175-118 392-118 217 0 392 64 392 118 0 28-61 68-166 93-21 5-34 26-29 47s26 34 47 29c137-32 226-90 226-169z" horiz-adv-x="1000" />

<glyph glyph-name="next-arrow-1" unicode="&#xe832;" d="M779 350c0-14-6-27-15-37l-423-422c-10-10-23-15-37-15-14 0-27 5-36 15l-32 31c-9 10-15 23-15 36 0 14 6 27 15 37l355 355-354 355c-20 20-20 53 0 73l31 31c10 10 23 15 37 15s27-5 36-15l423-422c9-10 15-23 15-37z" horiz-adv-x="1000" />

<glyph glyph-name="next-arrow-2" unicode="&#xe833;" d="M765 350c0-10-4-20-11-27l-454-453c-8-7-17-11-27-11-10 0-20 4-27 11-15 15-15 39 0 54l427 426-427 426c-15 15-15 39 0 54s39 15 54 0l454-453c7-7 11-17 11-27z" horiz-adv-x="1000" />

<glyph glyph-name="next-arrow-3" unicode="&#xe834;" d="M985 350c0-14-5-28-15-38l-351-350c-10-10-23-16-37-16-15 0-28 6-38 16l-32 32c-10 10-15 23-15 37 0 14 5 27 15 37l207 206h-652c-29 0-52 25-52 55v45c0 29 23 52 52 52h650l-205 205c-10 10-15 23-15 38 0 14 5 27 15 37l32 32c10 10 23 16 38 16 14 0 27-6 37-16l351-350c10-10 15-24 15-38z" horiz-adv-x="1000" />

<glyph glyph-name="next-arrow-4" unicode="&#xe835;" d="M970 326l-303-304c-13-13-35-13-49 0-13 13-13 35 0 49l246 245h-811c-18 0-33 15-33 34 0 19 15 34 33 34h811l-246 246c-13 13-13 35 0 48 14 13 36 13 49 0l303-304c14-13 14-35 0-48z" horiz-adv-x="1000" />

<glyph glyph-name="next-arrow-5" unicode="&#xe836;" d="M962 405l-329 329c-29 29-77 29-106 0l-68-68c-13-12-22-32-22-51 0-19 6-39 22-52l91-90h-455c-42 0-77-35-77-77v-94c0-39 35-71 77-71h451l-87-87c-13-13-22-32-22-55 0-19 6-38 22-55l68-67c13-13 32-23 52-23 19 0 38 6 51 23l329 329c16 16 23 35 23 54 3 20-3 39-20 55z m-45-64l-329-329c-6-7-9-7-16 0l-68 68c-3 3-3 6-3 9 0 3 0 7 3 10l142 142c10 9 13 22 7 35-7 13-16 20-29 20h-529c-7 0-13 3-13 6v94c0 6 6 12 13 12h535c13 0 26 7 29 20 3 13 3 26-6 35l-145 145c-4 4-4 7-4 7 0 3 0 3 4 6l67 68c4 3 10 6 17 0l328-329c4-3 4-6 4-10-4-3-4-6-7-9z" horiz-adv-x="1000" />

<glyph glyph-name="next-arrow-6" unicode="&#xe837;" d="M547 45v270h-529v90h529v250l435-305-435-305z" horiz-adv-x="1000" />

<glyph glyph-name="next-arrow-7" unicode="&#xe838;" d="M976 350l-448 396v-257h-504v-278h504v-257l448 396z m-896-84v168h503v189l309-273-309-273v189l-503 0 0 0z" horiz-adv-x="1000" />

<glyph glyph-name="next-arrow-8" unicode="&#xe839;" d="M950 350l-899-480v960l899-480z" horiz-adv-x="1000" />

<glyph glyph-name="paper-plane-1" unicode="&#xe83a;" d="M370 105l163-55-109-148c-6-8-15-12-24-12-3 0-6 0-9 1-13 4-21 16-21 29v185l0 0z m598 700c-9 6-21 7-31 2l-901-470c-11-6-17-17-16-29 1-12 9-23 20-26l250-86 534 456-413-497 420-144c3-1 6-1 9-1 6 0 11 1 16 4 8 5 13 13 14 21l110 741c2 11-3 22-12 29z" horiz-adv-x="1000" />

<glyph glyph-name="paper-plane-2" unicode="&#xe83b;" d="M982 777c0 2 0 4 0 5 0 1 0 1 0 2 0 1 0 2-1 3 0 1 0 2 0 2 0 2-1 3-1 4-1 1-1 2-2 3 0 0 0 1-1 2 0 1-1 1-1 2-1 1-2 2-3 3 0 0 0 0-1 1 0 0-1 0-1 1-1 0-1 1-2 1 0 0 0 1 0 1-1 0-2 1-3 1 0 1-1 1-2 1-1 1-2 1-3 1-1 1-2 1-3 1-1 0-2 1-3 1-1 0-2 0-2 0-1 0-2 0-3 0-1 0-3 0-4-1-1 0-2 0-3 0-1-1-1-1-2-1-1-1-2-1-2-1-1 0-1 0-1-1l-904-471c-10-6-17-17-16-29 1-12 9-23 21-27l331-113v-250c0-13 8-24 20-28 3-1 7-2 10-2 9 0 18 5 24 12l146 200 262-90c3-1 6-1 9-1 6 0 11 1 16 4 8 5 13 13 14 21l111 743c0 0 0 0 0 0l0 0z m-172-103l-419-449-267 91 686 358z m-380-664v138l81-28-81-110z m387 69l-363 124 454 487-91-611z" horiz-adv-x="1000" />

<glyph glyph-name="phone-call-1" unicode="&#xe83c;" d="M949 0l-90-90c-94-95-345 9-568 232-222 223-322 474-232 568l90 90c33 33 90 33 128 0l132-132c48-48 29-128-33-147-42-14-71-62-57-104 24-100 152-223 247-247 42-9 90 15 104 57 19 62 99 81 147 33l132-132c33-33 33-90 0-128z" horiz-adv-x="1000" />

<glyph glyph-name="phone-call-2" unicode="&#xe83d;" d="M776 237c-20 20-43 31-68 31-25 0-48-11-69-31l-63-63c-5 2-10 5-15 8-8 3-14 7-20 10-60 38-113 87-165 151-25 31-42 58-54 85 16 15 31 31 46 46 6 5 11 11 17 17 42 42 42 96 0 139l-55 54c-6 6-12 13-18 19-12 13-25 26-38 38-19 19-43 29-67 29-25 0-48-10-68-29-1-1-1-1-1-1l-68-69c-26-25-40-57-43-93-5-58 12-113 25-149 33-87 81-168 154-255 87-105 193-188 314-247 46-21 107-47 176-52 4 0 9 0 13 0 46 0 85 17 116 50 0 0 0 0 0 1 11 12 23 24 35 36 9 8 18 17 27 26 19 21 30 45 30 69 0 25-11 49-31 69l-110 111z m72-212c-8-8-16-16-25-24-13-13-26-26-39-40-20-22-44-32-75-32-3 0-6 0-9 0-60 4-115 27-157 47-113 55-213 133-295 232-69 82-115 158-145 240-18 50-25 89-22 126 2 23 11 43 27 59l69 69c10 9 20 14 30 14 13 0 23-8 29-14 1 0 1 0 1-1 12-11 24-23 36-36 6-6 13-12 19-19l55-55c21-21 21-41 0-62-6-6-11-12-17-17-17-17-33-33-51-49 0 0 0-1-1-1-17-17-14-34-10-46 0 0 0-1 1-1 14-35 34-67 64-106l1 0c55-68 113-122 178-162 8-5 16-10 24-14 7-3 14-7 20-10 1-1 2-1 3-2 6-3 13-5 19-5 17 0 27 11 31 14l68 69c7 6 18 15 31 15 12 0 22-8 29-15 0 0 0 0 0 0l110-111c21-20 21-41 1-63z m0 0c-1 0-1 0 0 0l0 0z m-331 605c2 15 16 25 31 22 63-10 121-40 167-86 46-46 76-104 87-168 3-15-7-29-22-31-2 0-3-1-5-1-13 0-24 10-26 23-9 52-34 100-72 138-38 38-86 63-139 72-14 2-24 17-21 31z m435-255c-2 0-3 0-5 0-13 0-24 9-26 22-16 94-60 179-128 247-68 67-153 111-247 127-14 3-24 17-22 32 3 14 17 24 31 22 105-18 200-68 276-143s125-171 143-276c3-15-7-29-22-31z" horiz-adv-x="1000" />

<glyph glyph-name="phone-call-3" unicode="&#xe83e;" d="M866 80c32-33 32-72 0-105-22-21-45-42-66-65-30-34-67-45-110-42-62 3-120 24-175 51-123 60-228 143-317 247-65 78-119 163-154 258-17 46-30 93-26 143 3 31 14 57 37 78 24 24 47 48 71 72 32 31 71 31 103 0 19-19 38-39 58-58 18-19 37-37 56-56 32-33 32-72 0-105-24-23-47-47-71-70-6-7-7-12-4-19 16-38 39-71 65-103 51-63 109-119 178-162 15-10 32-16 47-25 8-4 13-3 20 4 23 24 47 47 71 71 31 31 71 31 102 0 39-38 77-76 115-114z m-153 274l74 13c-12 68-44 130-93 179-51 51-116 84-188 94l-11-75c56-8 106-33 146-73 38-37 63-85 72-138z m116 322c-86 86-194 140-314 157l-10-75c103-14 197-61 271-135 70-70 116-159 132-256l75 13c-20 113-73 215-154 296z" horiz-adv-x="1000" />

<glyph glyph-name="phone-call-4" unicode="&#xe83f;" d="M550 601c0 10 8 17 17 17 120 0 218-97 218-218 0-9-8-16-17-16-9 0-17 7-17 16 0 102-82 184-184 185-9 0-17 7-17 16z m17 84c157 0 285-127 285-285 0-9 7-16 17-16s16 7 16 16c0 176-142 318-318 319-9 0-17-8-17-17s8-17 17-17z m400-622l-108 72-95 64c-19 12-44 8-57-9l-60-77c-12-16-35-21-54-11-40 23-87 44-192 149-105 105-126 152-149 192-10 19-5 42 11 54l77 60c17 13 21 38 9 57l-62 92-74 111c-12 19-37 24-57 13l-85-51c-23-14-40-36-47-61-23-85-28-272 272-572 300-300 487-296 572-272 25 7 47 24 61 47l51 85c11 20 6 45-13 57z m-400 421c46 0 84-37 84-84 0-9 7-16 17-16 9 0 16 7 16 16 0 65-52 118-117 118-9 0-17-8-17-17 0-9 8-17 17-17z" horiz-adv-x="1000" />

<glyph glyph-name="phone-call-5" unicode="&#xe840;" d="M952 172l-218 47c-10 2-20-1-27-8l-80-80c-149 75-271 197-346 346l80 80c7 7 10 17 8 27l-47 218c-3 13-15 23-29 23-45 0-88-11-127-32-36-19-68-48-92-82-24-34-40-74-46-115-7-43-2-87 13-129 48-131 125-253 224-352 99-99 221-176 352-224 30-11 60-16 91-16 13 0 25 1 38 3 41 6 81 22 115 46 34 24 63 56 82 92 21 39 32 82 32 127 0 14-10 26-23 29z m-125-200c-56-39-125-48-190-25-252 92-448 288-540 540-23 65-14 134 25 190 35 50 88 81 147 87l38-177-83-83c-9-9-11-22-6-33 83-177 226-320 403-403 11-5 24-3 33 6l83 83 177-38c-6-59-37-112-87-147z" horiz-adv-x="1000" />

<glyph glyph-name="phone-call-6" unicode="&#xe841;" d="M215 431h-198c0 280 244 317 483 317 239 0 483-37 483-317h-199c-14 180-116 170-279 172-161 1-275 12-290-172z m-99-90c48 0 89-3 98 44 1 7 1 14 1 23h-2-197c0-71 45-67 100-67z m670 67h-2c0-9 0-16 2-23 9-44 49-41 98-41 55 0 100-3 100 64h-198z m-98 23c48-49 202-257 207-282v-169c0-16-12-28-28-28h-752c-16 0-29 12-29 28l0 169c6 25 160 233 207 282v25 28c0 13 15 13 33 13h29c18 0 32 0 32-13v-24-19h207v19 24c0 13 15 13 33 13h29c18 0 32 0 32-13v-28-25h0z m-283-278c0 15-13 28-28 28-15 0-27-13-27-28 0-15 12-27 27-27 15 0 28 12 28 27z m0 94c0 16-13 28-28 28-15 0-27-12-27-28s12-27 27-27c15 0 28 12 28 27z m0 94c0 16-13 28-28 28-15 0-27-12-27-28 0-15 12-27 27-27 15 0 28 12 28 27z m113-188c0 15-13 28-28 28-15 0-27-13-27-28 0-15 12-27 27-27 15 0 28 12 28 27z m0 94c0 16-13 28-28 28-15 0-27-12-27-28s12-27 27-27c15 0 28 12 28 27z m0 94c0 16-13 28-28 28-15 0-27-12-27-28 0-15 12-27 27-27 15 0 28 12 28 27z m112-188c0 15-12 28-27 28s-27-13-27-28c0-15 12-27 27-27s27 12 27 27z m0 94c0 16-12 28-27 28s-27-12-27-28 12-27 27-27 27 12 27 27z m0 94c0 16-12 28-27 28s-27-12-27-28c0-15 12-27 27-27s27 12 27 27z" horiz-adv-x="1000" />

<glyph glyph-name="phone-call-7" unicode="&#xe842;" d="M942 633c-37 50-101 96-181 128-80 32-172 50-260 50-89 0-181-17-261-49-80-32-144-77-181-128-36-48-46-100-30-151 11-32 41-54 76-54l120 0c0 0 0 0 0 0 23 0 46 10 61 28 15 18 21 42 17 65 0 1 0 1 0 2l-7 24c35 17 114 49 204 49 90-1 169-33 204-50l-7-24c0-1 0-1 0-2-4-23 2-47 17-65 15-18 37-28 61-28l120 0c0 0 0 0 0 0 35 0 65 21 76 54 16 50 6 102-29 151z m-26-134c-2-8-11-14-21-14 0 0 0 0 0 0l-120 0c-7 0-13 3-17 8-3 3-6 9-5 17l12 45c3 12-2 25-13 32-5 3-115 66-252 67 0 0-1 0-2 0-136 0-245-63-249-66-11-7-17-20-14-32l12-45c1-8-2-14-5-17-4-5-10-8-17-8 0 0 0 0 0 0l-120 0c-10 0-18 6-21 15-11 32-4 66 21 100 65 89 231 153 395 153 0 0 0 0 0 0 164 0 330-65 395-155 25-33 32-67 21-100z m-235-100c-5 6-13 9-21 9h-57v39c0 16-13 28-29 28-15 0-28-12-28-28v-39h-92v39c0 16-12 28-28 28-16 0-29-12-29-28v-39h-57c-8 0-16-3-21-9l-89-93c-70-74-108-170-108-271v-118c0-15 12-28 28-28h700c16 0 28 13 28 28v118c0 101-38 197-108 271l-89 93z m140-453h-642v89c0 86 33 169 92 231l81 85h296l81-85c59-62 92-145 92-231v-89z m-321 346c-82 0-149-67-149-149s67-150 149-150c82 0 149 67 149 150 0 82-67 149-149 149z m0-242c-51 0-92 42-92 93 0 50 41 92 92 92 51 0 92-42 92-92 0-51-41-93-92-93z" horiz-adv-x="1000" />

<glyph glyph-name="pinterest-1" unicode="&#xe843;" d="M885 492c0-198-131-357-313-357-61 0-118 30-138 66 0 0-30-110-37-137-20-75-92-177-98-185-4-5-11-3-12 3-2 10-23 134-4 210 11 45 71 286 71 286s-18 34-18 85c0 164 185 183 185 59 0-50-33-123-50-192-14-57 30-104 89-104 230 0 297 497-62 497-248 0-335-256-227-380 4-6 5-11 4-17-19-70-16-82-38-72-75 33-122 138-122 222 0 181 138 348 398 348 209 0 371-142 372-332z" horiz-adv-x="1000" />

<glyph glyph-name="pinterest-2" unicode="&#xe844;" d="M864 591c-15 49-38 90-72 126-32 35-70 62-115 82-51 22-110 33-167 30-20-1-40-2-60-5-56-8-105-24-150-50-57-34-102-79-133-135-17-30-32-81-39-115-8-40-1-109 15-148 20-48 36-70 77-100 0 0 25-18 41-17 31 0 37 29 39 43 1 3 1 5 2 8 1 2 1 4 2 6 4 14 10 33 1 50-4 6-8 11-12 15-2 3-4 5-6 7-14 22-21 48-21 79 0 41 9 78 28 114 34 64 92 104 166 117 42 7 91 4 128-8 34-11 62-30 83-55 21-27 34-61 37-101 1-26-1-52-3-69-7-66-27-120-57-159-25-32-52-48-83-49-19 0-34 4-47 13-13 9-20 20-24 35-4 16 1 34 6 52l1 3c4 16 9 31 14 46 7 23 14 46 20 74 7 31 8 56 3 76-6 26-20 45-40 57-22 13-53 15-80 6-39-13-68-48-81-97-7-24-9-50-6-76 2-21 7-40 16-62-1-1-1-2-1-3-1-2-2-4-2-6-9-38-18-76-27-113-8-36-17-72-25-108l-2-8c-9-37-18-75-20-120l-1-19c-2-35-4-72 1-105 0-7 3-22 17-27 4-3 9-5 13-5 12 0 23 13 32 23 30 34 55 77 78 132 10 24 17 51 23 76l4 15c5 18 9 36 14 55l0 1c9-8 18-14 30-21 24-13 51-21 80-23 28-1 57 2 89 11 24 7 47 18 69 32 77 49 130 136 149 244 5 32 8 58 8 87 0 33-4 63-12 89z m-34-169c-17-98-63-176-132-219-18-12-38-21-59-27-28-8-52-11-75-9-24 1-46 7-65 18-19 11-32 22-41 37l-23 41-21-83c-5-18-10-36-14-54l-4-16c-7-25-13-49-22-70-20-49-42-88-68-118-2 25-1 55 1 83l1 19c2 42 10 78 19 113l2 8c8 36 17 72 25 108 9 37 18 75 27 113 0 1 1 3 1 4 3 8 5 16 2 24-9 21-13 37-15 56-2 21-1 42 5 63 9 35 30 61 57 70 6 2 13 3 20 3 11 0 21-2 27-6 12-7 19-17 23-33 4-14 3-34-3-59-6-26-13-48-20-71-5-15-9-30-14-47l-1-3c-6-21-12-45-6-71 6-24 18-43 38-57 21-14 44-21 72-20 42 1 79 23 111 64 35 44 57 104 65 177 2 19 5 47 3 76-3 48-19 90-46 123-25 31-60 54-100 67-43 14-99 17-146 9-87-14-153-61-194-136-22-41-33-84-33-132 0-39 10-72 28-100 3-4 6-7 9-11 3-3 6-6 7-9 2-3-2-14-3-19-1-3-2-6-3-9-1-3-1-6-2-9-1-4-2-9-3-12-5 1-13 6-17 9-35 26-47 42-65 84-13 31-19 93-13 125 8 36 23 82 35 104 28 50 68 91 119 121 41 23 86 38 136 45 19 3 38 4 57 5 51 2 104-7 150-27 40-18 73-42 103-73 29-31 49-68 62-111 7-23 10-49 10-78 0-26-2-50-7-80z" horiz-adv-x="1000" />

<glyph glyph-name="play-button-1" unicode="&#xe845;" d="M754 364l-359 245c-5 3-12 3-17 0-5-2-9-8-9-14v-490c0-6 4-12 9-14 2-2 5-2 8-2 3 0 6 1 9 3l359 245c5 3 7 8 7 13 0 5-2 11-7 14z m-352-228v428l314-214-314-214z m98 704c-270 0-490-220-490-490s220-490 490-490 490 220 490 490-220 490-490 490z m0-947c-252 0-457 205-457 457 0 252 205 457 457 457 252 0 457-205 457-457 0-252-205-457-457-457z" horiz-adv-x="1000" />

<glyph glyph-name="play-button-2" unicode="&#xe846;" d="M500 835c-267 0-485-218-485-485 0-267 218-485 485-485s485 218 485 485c0 267-218 485-485 485z m193-502l-283-182c-3-2-7-3-11-3-3 0-7 1-10 2-6 4-10 11-10 18v364c0 7 4 14 10 18 7 3 15 3 21-1l283-182c6-4 9-10 9-17s-3-13-9-17z" horiz-adv-x="1000" />

<glyph glyph-name="play-button-3" unicode="&#xe847;" d="M669 349c0-7-4-14-10-19l-200-146c-4-3-9-4-14-4-4 0-8 1-11 2-8 5-13 13-13 22v291c0 9 5 17 13 21 8 5 18 4 25-2l200-145c6-5 10-12 10-20z m313 1c0-266-216-482-482-482-266 0-482 216-482 482 0 266 216 482 482 482 266 0 482-216 482-482z m-80 0c0 222-180 402-402 402-222 0-402-180-402-402 0-222 180-402 402-402 222 0 402 180 402 402z" horiz-adv-x="1000" />

<glyph glyph-name="play-button-4" unicode="&#xe848;" d="M500 825c-262 0-475-213-475-475s213-475 475-475 475 213 475 475-213 475-475 475z m0-910c-240 0-435 195-435 435s195 435 435 435 435-195 435-435-195-435-435-435z m189 452l-277 178c-6 4-14 4-20 1-7-4-11-11-11-18v-356c0-7 4-14 11-17 3-2 6-3 9-3 4 0 8 1 11 3l277 178c6 4 9 10 9 17 0 7-3 13-9 17z m-268-159v284l221-142-221-142z" horiz-adv-x="1000" />

<glyph glyph-name="search-1" unicode="&#xe849;" d="M959-58l-229 230c57 68 91 156 91 252 0 219-177 396-395 396s-396-177-396-396c0-218 178-395 396-395 96 0 184 34 252 91l230-229c7-8 16-11 26-11 9 0 18 3 25 11 15 14 15 37 0 51z m-533 160c-178 0-323 145-323 322 0 178 145 323 323 323 178 0 322-145 322-323 0-177-144-322-322-322z" horiz-adv-x="1000" />

<glyph glyph-name="search-2" unicode="&#xe84a;" d="M702 229h-43l-15 15c53 61 85 140 85 227 0 193-157 349-350 349s-349-156-349-349c0-193 156-350 349-350 87 0 166 32 227 84l15-14v-43l269-268 80 80-268 269z m-323 0c-133 0-241 108-241 242 0 133 108 242 241 242s242-109 242-242c0-134-108-242-242-242z" horiz-adv-x="1000" />

<glyph glyph-name="search-3" unicode="&#xe84b;" d="M718 215c45 62 73 139 73 222 0 209-170 378-378 378s-378-169-378-378c0-208 170-378 378-378 83 0 160 28 222 74l248-248 82 82-247 248z m-305-39c-144 0-262 117-262 261 0 144 118 262 262 262s261-118 261-262c0-144-117-261-261-261z" horiz-adv-x="1000" />

<glyph glyph-name="search-4" unicode="&#xe84c;" d="M290 606c13-13 13-35 0-49-36-36-53-85-48-136 2-19-12-36-31-38-2 0-3-1-4-1-18 0-33 14-34 32-8 72 17 142 67 192 14 14 36 14 50 0z m670-716c-7-7-16-10-25-10-9 0-17 3-24 10l-229 229c-69-58-158-93-255-93-219 0-397 178-397 397s178 397 397 397c219 0 397-178 397-397 0-97-35-186-93-255l229-229c13-13 13-35 0-49z m-533 205c89 0 169 36 228 93 1 1 2 3 3 4 2 1 3 2 4 3 57 59 93 139 93 228 0 181-147 328-328 328-181 0-327-147-327-328s146-328 327-328z" horiz-adv-x="1000" />

<glyph glyph-name="settings-1" unicode="&#xe84d;" d="M798 216l-164-164-89 89 62 63-432 433-34-34-111 138 79 79 138-111-34-33 433-433v0l63 62 89-89z m39-39l-164-164 99-99c22-22 51-34 82-34s60 12 82 34c45 45 45 119 0 164l-99 99z m-331 50l-94-93c21-70 3-145-49-197-38-38-88-57-138-57s-100 19-138 57c-37 37-57 86-57 138 0 53 20 102 57 138 52 52 127 70 197 49l93 94 129-129z m-236-107c-25 25-65 25-89 0-25-25-25-65 0-89 24-25 64-25 89 0 25 24 25 64 0 89z m353 224l111 112c17-5 34-7 50-7 49 0 96 19 132 54 52 52 68 131 41 199l-15 39-99-98-39 11-11 39 98 99-39 15c-68 27-147 11-199-41-47-48-65-118-47-182l-112-111 129-129z" horiz-adv-x="1000" />

<glyph glyph-name="settings-2" unicode="&#xe84e;" d="M30 736c-4 6-3 14 2 19l63 63c5 5 13 6 19 2l110-63c4-2 7-5 8-9l15-59 201-202-22-22-205 205c-2 2-3 4-4 7l-14 57-94 53-46-46 54-94 56-14c3-1 5-2 7-4l205-205-22-22-202 202-59 14c-4 1-7 4-9 8l-63 110z m286-548l22-22 346 346-22 23-346-347z m8-113c3-5 3-11 0-16l-47-79c-3-5-8-8-13-8h-95c-5 0-10 3-13 8l-48 79c-3 5-3 11 0 16l48 79c3 4 8 7 13 7h95c5 0 10-3 13-7l47-79z m-31-8l-38 63h-77l-38-63 38-63h77l38 63z m642-153c-50-49-130-49-180 1l-188 188c-6 6-6 16 0 22l8 8c0 0 0 0 0 0 7 7 7 18 0 25-7 7-18 7-25 0l-8-8c-6-6-16-6-22 0l-36 36-82-82c2-12 3-25 3-37 0-105-84-189-189-189-104 0-188 84-188 189 0 104 84 189 188 189 13 0 25-2 37-4l345 345c-2 12-4 24-4 37 0 15 2 31 6 46 26 101 128 162 229 137 3-1 5-2 7-4 6-7 6-16 0-23l-98-98 26-77 78-26 98 98c2 2 5 3 7 4 9 2 17-3 19-12 4-15 6-31 6-47 0-104-85-188-189-187-12 0-24 1-37 4l-82-83 36-36c6-6 6-16 0-22l-8-8c0 0 0 0 0 0-7-7-7-18 0-25 7-7 18-7 25 0l8 8c6 6 16 6 22 0l188-188c0 0 0-1 1-1 49-50 49-130-1-180z m-205 563l0 0 0 0c4 4 10 5 15 4 13-3 26-5 40-5 86 1 156 71 156 158 0 3 0 6-1 9l-83-83c-4-5-10-6-16-4l-94 31c-5 2-9 5-10 10l-32 95c-2 5 0 12 4 16l83 83c-16 1-33-1-48-5-84-21-135-107-113-190 1-6-1-11-4-15l-358-357c-3-4-9-6-15-5-25 7-52 7-78 0-85-21-136-107-114-192 21-85 108-137 192-115 85 22 137 108 115 193-1 5 0 11 4 15l357 357z m54-545l134 135c-2 2-3 4-5 6l-177 176c-18-15-45-15-63 0-21 18-24 49-6 70l-25 25-136-135 25-26c19 16 45 16 64 0 20-17 23-48 6-69l177-177c1-2 3-3 6-5z m151 106l-123-123c10-4 22-6 33-6 12 0 23 2 34 6 49 19 74 74 56 123z m-273 128l157-158 23 23-158 157-22-22z" horiz-adv-x="1000" />

<glyph glyph-name="settings-3" unicode="&#xe84f;" d="M953 225l-100 79c2 15 3 30 3 46 0 16-1 31-3 46l100 79c9 7 12 20 6 30l-95 165c-6 10-18 14-29 10l-118-48c-25 19-52 35-81 47l-17 126c-2 11-12 20-24 20h-190c-12 0-22-9-24-20l-17-126c-29-12-56-28-81-47l-118 48c-11 4-23 0-29-10l-95-165c-6-10-3-23 6-30l100-79c-2-15-3-30-3-46 0-16 1-31 3-46l-100-79c-9-7-12-20-6-30l95-165c6-10 18-14 29-10l118 48c25-19 52-35 81-47l17-126c2-11 12-20 24-20h190c12 0 22 9 23 20l18 126c29 12 56 28 81 47l118-48c10-4 23 0 29 10l95 165c6 10 3 23-6 30z m-453-41c-92 0-166 74-166 166 0 92 74 166 166 166 92 0 166-74 166-166 0-92-74-166-166-166z" horiz-adv-x="1000" />

<glyph glyph-name="settings-4" unicode="&#xe850;" d="M948 245l-87 69c1 11 2 23 2 36 0 13-1 25-2 36l88 69c16 13 20 35 10 54l-91 158c-10 18-33 27-53 19l-103-41c-20 14-41 26-63 36l-15 109c-3 21-21 37-42 37h-183c-22 0-40-16-42-36l-16-110c-21-10-41-22-62-36l-104 41c-20 8-42 0-52-18l-92-158c-10-19-6-42 11-55l87-69c-1-13-2-25-2-36 0-11 1-23 2-36l-87-69c-17-12-21-35-11-54l91-158c10-18 33-27 53-19l104 41c19-14 40-26 62-36l16-109c2-21 20-37 42-37h183c21 0 39 16 42 36l15 110c21 10 42 22 62 36l104-41c20-8 43 0 52 18l92 159c10 19 6 41-11 54z m-24-35l-94-159-114 45c-7 3-14 2-19-2-25-19-49-32-73-42-7-3-11-9-12-16l-20-123-186 2-17 121c-1 7-6 13-13 16-25 10-49 24-72 42-4 3-8 4-12 4-3 0-5-1-8-2l-117-44-91 158c-1 2-1 3 0 4l97 76c5 4 8 11 7 18-2 16-3 30-3 42 0 12 1 26 3 42 1 7-2 14-7 19l-97 79 94 159 114-45c7-3 14-2 20 2 24 19 48 32 72 42 7 3 12 9 13 16l20 123 185-2 18-121c1-7 5-13 12-16 25-10 50-24 72-42 6-4 13-5 20-2l117 44 91-158c1-2 1-3 0-4l-97-75c-5-5-8-12-7-19 2-12 3-26 3-42 0-16-2-30-3-42-1-7 2-14 7-18l97-76c1-1 1-2 0-4z m-424 339c-110 0-199-89-199-199 0-110 89-199 199-199s199 89 199 199c0 110-89 199-199 199z m0-358c-88 0-159 71-159 159 0 88 71 159 159 159 88 0 159-71 159-159 0-88-71-159-159-159z" horiz-adv-x="1000" />

<glyph glyph-name="settings-5" unicode="&#xe851;" d="M918 452l-73 9c-6 19-14 37-22 54l45 59c18 24 16 57-5 77l-61 62c-21 21-54 23-78 5l-59-45c-17 8-35 16-54 22l-9 73c-3 30-28 52-58 52h-88c-29 0-54-22-58-52l-9-73c-19-6-37-14-54-22l-59 45c-23 18-57 16-77-5l-62-61c-21-21-23-54-5-78l46-59c-9-17-17-35-23-54l-73-9c-30-3-52-28-52-58v-88c0-29 22-54 52-58l73-9c6-19 14-37 23-54l-46-59c-18-23-16-57 5-77l62-62c20-21 54-23 77-5l59 46c17-9 35-17 54-23l9-73c4-30 29-52 58-52h88c30 0 55 22 58 52l9 73c19 6 37 14 54 23l59-46c24-18 57-16 77 5l62 62c21 20 23 54 5 77l-45 59c8 17 16 35 22 54l73 9c30 4 52 29 52 58v88c0 30-22 55-52 58z m-418-298c-108 0-196 88-196 196 0 108 88 196 196 196s196-88 196-196c0-108-88-196-196-196z" horiz-adv-x="1000" />

<glyph glyph-name="settings-6" unicode="&#xe852;" d="M943 456l-71 15c-7 20-14 38-23 56l39 62c7 11 6 25-3 34l-112 112c-9 9-23 10-35 3l-61-39c-18 9-37 16-56 23l-15 71c-3 13-14 22-27 22h-158c-13 0-24-9-27-22l-15-71c-19-7-38-14-56-23l-61 39c-11 7-26 6-35-3l-111-112c-10-9-11-23-4-34l39-62c-9-18-16-36-23-56l-71-15c-13-3-22-14-22-27v-158c0-13 9-24 22-27l71-15c7-19 14-38 23-56l-39-61c-7-11-6-26 4-35l111-112c9-9 24-10 35-3l61 39c18-9 37-16 56-23l15-71c3-13 14-22 27-22h158c13 0 24 9 27 22l15 71c20 7 38 14 56 23l62-39c11-7 25-6 34 3l112 112c9 9 10 24 3 35l-39 61c9 18 16 37 23 56l71 15c13 3 22 14 22 27v158c0 13-9 24-22 27z m-34-162l-65-15c-10-2-18-9-21-19-7-26-17-51-31-74-5-9-4-20 1-29l36-57-79-79-57 36c-8 6-19 6-28 1-24-13-49-24-75-31-10-3-17-11-19-21l-15-65h-112l-15 65c-2 10-9 18-19 21-26 7-51 18-74 31-9 5-20 5-29-1l-57-36-79 79 36 57c6 9 6 20 1 29-13 23-24 48-31 74-3 10-11 17-21 19l-65 15v112l65 15c10 2 18 9 21 19 7 26 18 51 31 75 5 9 5 20-1 28l-36 57 79 79 57-36c9-5 20-6 29-1 23 14 48 24 74 31 10 3 17 11 19 21l15 65h112l15-65c2-10 9-18 19-21 26-7 51-17 75-31 9-5 20-4 28 1l57 36 79-79-36-57c-5-8-6-19-1-28 14-24 24-49 31-75 3-10 11-17 21-19l65-15v-112l0 0z m-409 278c-123 0-222-99-222-222s99-222 222-222 222 99 222 222-99 222-222 222z m0-389c-92 0-167 75-167 167s75 167 167 167 167-75 167-167-75-167-167-167z" horiz-adv-x="1000" />

<glyph glyph-name="twitter-1" unicode="&#xe853;" d="M882 546c1-8 1-17 1-26 0-260-199-561-561-561-112 0-215 32-303 89 16-2 31-3 47-3 93 0 178 32 245 84-86 2-159 59-184 138 12-3 24-4 37-4 18 0 36 2 52 7-90 18-158 98-158 193 0 1 0 2 0 3 26-15 57-24 89-25-53 35-88 96-88 164 0 37 10 70 27 100 98-120 243-198 407-206-4 14-5 29-5 45 0 108 88 197 197 197 56 0 108-24 144-63 45 9 87 25 125 48-15-46-46-84-87-109 40 5 78 16 114 31-27-40-60-74-99-102z" horiz-adv-x="1000" />

<glyph glyph-name="twitter-2" unicode="&#xe854;" d="M972 633c-60-3-58-2-65-3l35 100c0 0-109-40-137-47-73 65-182 68-260 21-63-39-97-107-86-185-124 17-228 76-310 175l-26 31-20-36c-24-45-32-97-23-145 4-20 11-39 21-57l-23 9-2-37c-3-38 10-83 33-119 7-10 16-21 27-32l-12 2 14-43c19-56 57-100 107-124-50-21-90-35-156-56l-61-20 56-31c21-12 97-51 171-62 166-26 352-5 477 108 106 95 141 230 133 371-1 22 5 42 17 57 23 32 90 123 90 123z m-134-89c-20-26-30-59-28-94 7-142-31-252-115-327-97-88-254-122-431-95-32 5-65 17-93 28 56 19 99 36 168 69l96 45-106 7c-51 4-94 28-120 68 14 1 27 4 41 7l101 29-102 25c-50 12-78 42-94 65-9 15-16 30-20 44 11-3 23-5 42-6l95-10-75 59c-55 42-76 106-60 167 169-176 367-163 387-167-4 42-4 43-5 47-26 90 30 136 55 152 53 32 137 37 195-17 13-11 30-16 46-12 14 4 25 8 37 12l-24-68 31 0c-6-8-13-17-21-28z" horiz-adv-x="1000" />

<glyph glyph-name="twitter-3" unicode="&#xe855;" d="M979 673c0 23-25 38-45 26-36-21-69-26-102-17-69 67-170 81-256 34-75-40-117-114-113-194-127 15-244 78-325 177-14 16-39 14-50-4-39-67-39-145-4-208-17-3-27-17-27-32 0-63 29-121 75-161-9-8-12-20-8-31 20-61 66-108 123-132-62-29-131-39-192-32-32 4-47-38-20-55 90-57 194-87 302-87 157 0 302 60 407 170 100 106 155 247 153 391 38 32 82 94 82 155z m-131-116c-8-6-13-16-12-26 6-133-43-265-136-362-93-98-222-152-363-152-56 0-111 9-163 27 62 12 121 38 171 77 23 17 11 53-18 54-50 1-95 26-124 65 14 0 28 3 42 6 30 8 29 53-2 59-57 11-101 53-118 106 15-4 31-6 46-6 31-1 42 39 17 55-56 37-80 103-64 164 98-99 232-159 373-166 20-1 35 18 31 37-20 83 27 141 77 168 49 27 128 35 189-29 18-19 79-19 110-12-14-26-36-51-56-65z" horiz-adv-x="1000" />

<glyph glyph-name="twitter-4" unicode="&#xe856;" d="M971 502l-89-73v-12c0-130-52-253-146-344-91-89-215-143-349-152-10-1-20-1-31-1-52 0-103 10-150 29-48 20-90 50-124 86l-52 58 77-12c72-11 119-4 147 6-23 11-50 26-78 48-88 66-137 157-143 264l-4 73 33-34c-5 35-6 80 5 134l17 85 21-47c5 37 17 78 44 118l36 52 14-61c15-69 40-127 73-171 27-34 59-61 95-79 34-17 67-23 89-25-1 9-2 18-2 27 0 118 96 214 214 214 49 0 97-17 135-48 33-27 57-64 70-104l98-31z" horiz-adv-x="1000" />

<glyph glyph-name="user-1" unicode="&#xe857;" d="M829 214c-51 51-111 88-177 111 71 48 117 129 117 221 0 148-121 269-269 269s-269-121-269-269c0-92 46-173 117-221-66-23-126-61-177-111-88-88-136-205-136-329h73c0 216 176 392 392 392s392-176 392-392h73c0 124-48 241-136 329z m-329 136c-108 0-196 88-196 196 0 108 88 196 196 196s196-88 196-196c0-108-88-196-196-196z" horiz-adv-x="1000" />

<glyph glyph-name="user-2" unicode="&#xe858;" d="M500 289c-288 0-447-136-447-384 0-19 15-35 35-35h824c20 0 35 16 35 35 0 248-159 384-447 384z m-376-349c14 185 140 279 376 279 236 0 362-94 376-279h-752z m376 401c128 0 232 113 232 252 0 135-99 237-232 237-132 0-232-102-232-237 0-139 104-252 232-252z m0 419c93 0 162-72 162-167 0-100-72-182-162-182-89 0-162 82-162 182 0 97 68 167 162 167z" horiz-adv-x="1000" />

<glyph glyph-name="user-3" unicode="&#xe859;" d="M909-88c0-15-12-27-27-27h-764c-15 0-27 12-27 27 0 95 37 184 104 252 67 69 156 106 251 106h109c94 0 183-38 250-106 67-68 104-157 104-252z m-409 413c135 0 245 110 245 245 0 135-110 245-245 245s-245-110-245-245c0-135 110-245 245-245z" horiz-adv-x="1000" />

<glyph glyph-name="user-4" unicode="&#xe85a;" d="M259 573c0 133 108 242 241 242 133 0 241-109 241-242 0-132-108-241-241-241-133 0-241 109-241 241z m655-434c-6 16-15 31-24 45-49 71-123 119-208 130-10 1-22-1-30-7-44-33-97-50-152-50s-107 17-152 50c-8 6-20 9-30 7-84-11-160-59-208-130-9-14-18-30-24-45-3-6-2-13 1-20 9-14 19-29 29-42 14-20 30-38 48-55 15-14 32-28 49-42 83-62 183-95 286-95 103 0 203 33 287 95 16 13 33 28 48 42 17 17 34 35 48 55 11 14 21 28 29 42 5 7 6 14 3 20z" horiz-adv-x="1000" />

<glyph glyph-name="user-5" unicode="&#xe85b;" d="M309 593c0 128 28 233 191 233 163 0 192-105 192-233 0-128-86-233-192-233-106 0-191 105-191 233z m-171-588c0 8 0 3 0 0l0 0z m724-6c0 2 0 15 0 0l0 0z m-1 16c-3 223-32 287-256 328 0 0-32-41-105-41-73 0-105 41-105 41-221-40-252-103-256-321 0-18-1-19-1-17 0-4 0-11 0-23 0 0 54-108 362-108 308 0 362 108 362 108 0 8 0 13 0 17 0-1 0 1-1 16z" horiz-adv-x="1000" />

<glyph glyph-name="user-6" unicode="&#xe85c;" d="M497 314c1 0 2 0 3 0 0 0 1 0 1 0 0 0 1 0 2 0 57 1 103 21 137 59 75 84 63 229 61 243-5 104-54 153-94 177-30 17-66 26-105 27h-1c0 0-1 0-1 0h-1c-22 0-64-3-105-27-41-23-91-72-96-177-1-14-13-159 62-243 33-38 80-58 137-59z m-147 297c0 1 1 1 1 2 6 139 105 154 148 154h0c1 0 1 0 2 0 52-1 142-22 148-154 0-1 0-1 0-2 0-1 14-134-48-203-25-28-57-41-100-42-1 0-1 0-1 0-1 0-1 0-1 0-43 1-76 14-100 42-62 69-49 202-49 203z m540-626c-2-5-5-9-10-12-6-4-145-93-380-93-234 0-374 89-380 93-4 3-8 7-10 12-10 26-10 78-10 89 0 0 0 0 0 0 1 2 1 3 1 5 1 38 3 128 88 157 0 1 1 1 2 1 88 22 160 73 161 74 12 8 28 5 37-7 8-12 5-28-7-36-3-3-80-57-177-82-46-16-51-64-52-109 0-1 0-3 0-4-1-18 1-45 4-61 32-18 156-80 343-80 188 0 312 62 343 80 3 16 5 43 4 60 0 2 0 3 0 5-1 45-6 93-52 109-96 25-174 79-177 81-12 9-15 25-7 37s25 15 37 6c1 0 74-51 161-73 1 0 2-1 2-1 85-29 87-119 89-157 0-2 0-4 0-5 0 0 0 0 0-1 0-10 0-62-10-88z" horiz-adv-x="1000" />

<glyph glyph-name="view-1" unicode="&#xe85d;" d="M979 369c-9 12-215 290-479 290s-470-278-479-290c-8-11-8-27 0-38 9-12 215-290 479-290s470 278 479 290c8 11 8 27 0 38z m-479-264c-194 0-362 185-412 245 50 61 217 245 412 245 194 0 362-185 412-245-50-60-217-245-412-245z m0 437c-106 0-192-86-192-192 0-106 86-192 192-192s192 86 192 192c0 106-86 192-192 192z m0-320c-70 0-128 58-128 128 0 71 58 128 128 128 71 0 128-57 128-128 0-70-57-128-128-128z" horiz-adv-x="1000" />

<glyph glyph-name="view-2" unicode="&#xe85e;" d="M609 343c-3-54-48-98-102-102-66-4-120 50-116 116 4 55 48 98 102 102 66 4 120-50 116-116z m365-16c-123-163-290-264-474-264-184 0-351 101-474 264-10 14-10 33 0 46 123 163 290 264 474 264 184 0 351-101 474-264 10-14 10-32 0-46z m-487 225c-101-6-183-88-189-189-8-122 93-223 215-215 101 6 183 88 189 189 8 122-93 223-215 215z" horiz-adv-x="1000" />

<glyph glyph-name="view-3" unicode="&#xe85f;" d="M500 500c-83 0-150-67-150-150 0-83 67-150 150-150 83 0 150 67 150 150 0 83-67 150-150 150z m-11-106c-19 0-34-15-34-34h-50c1 47 38 84 84 84v-50z m465-13c-50 63-231 268-454 268s-404-205-454-268c-15-18-15-43 0-62 50-63 231-268 454-268s404 205 454 268c15 18 15 43 0 62z m-454-248c-120 0-217 97-217 217 0 120 97 217 217 217s217-97 217-217c0-120-97-217-217-217z" horiz-adv-x="1000" />

<glyph glyph-name="view-4" unicode="&#xe860;" d="M960 395c-54 68-123 125-200 163-79 40-164 60-253 61-2 0-12 0-14 0-89-1-174-21-253-61-77-38-146-95-200-163-20-27-20-63 0-90 54-68 123-125 200-163 79-40 164-60 253-61 2 0 12 0 14 0 89 1 174 21 253 61 77 38 146 95 200 163 20 27 20 63 0 90z m-703-219c-72 36-136 89-186 153-10 12-10 30 0 42 50 64 114 117 186 153 21 10 42 19 63 26-55-49-89-121-89-200 0-79 34-151 89-200-21 7-42 16-63 26z m243-57c-127 0-231 104-231 231 0 127 104 231 231 231s231-104 231-231c0-127-104-231-231-231z m429 210c-50-64-114-117-186-153-21-10-42-19-63-26 55 49 89 121 89 200 0 80-34 151-89 200 21-7 42-16 63-26 72-36 136-89 186-153 10-12 10-30 0-42z m-429 120c-54 0-99-45-99-99 0-54 45-99 99-99s99 45 99 99c0 54-45 99-99 99z m0-159c-33 0-60 27-60 60 0 33 27 60 60 60 33 0 60-27 60-60 0-33-27-60-60-60z" horiz-adv-x="1000" />

<glyph glyph-name="view-5" unicode="&#xe861;" d="M258 742c-8 14-3 31 10 38 14 8 31 3 39-10l37-65c7-14 3-31-11-38-13-8-30-3-38 10l-37 65z m409-75c13-8 30-3 38 10l37 65c8 14 3 31-10 38-14 8-31 3-38-10l-38-65c-7-14-3-31 11-38z m-334-634c-13 8-30 3-38-10l-37-65c-8-14-3-31 10-38 14-8 31-3 39 10l37 65c7 14 3 31-11 38z m167 671c15 0 28 12 28 28v65c0 16-13 28-28 28s-28-12-28-28v-65c0-16 13-28 28-28z m469-372c-83-100-265-228-469-228-197 0-380 121-469 228-8 11-8 25 0 36 86 104 269 228 469 228 200 0 382-123 469-228 8-11 8-25 0-36z m-665 167c-106-46-182-116-213-149 57-60 132-114 213-148-66 87-66 209 0 297z m386-149c0 105-85 190-190 190-105 0-190-85-190-190 0-105 85-190 190-190s190 85 190 190z m219 0c-57 60-132 114-213 148 66-87 66-209 0-296 106 45 182 115 213 148z m-409-354c-15 0-28-12-28-28v-65c0-16 13-28 28-28s28 12 28 28v65c0 16-13 28-28 28z m95 354c0-52-43-95-95-95s-95 43-95 95c0 52 43 95 95 95s95-43 95-95z m-56 0c0 22-17 39-39 39s-39-17-39-39c0-22 17-39 39-39s39 17 39 39z m166-327c-8 13-25 18-38 11-14-8-18-25-11-39l38-65c7-13 24-18 38-10s18 24 10 38l-37 65z" horiz-adv-x="1000" />

<glyph glyph-name="web-1" unicode="&#xe862;" d="M698 68c-41-115-106-193-181-203v224c61-1 122-8 181-21z m-77-189c1 0 3 0 4 1 4 1 8 2 11 3 5 1 9 2 13 4 4 1 8 2 11 4 5 1 9 3 13 4 4 2 7 3 11 4 4 2 8 4 12 6 4 1 7 3 11 5 4 1 8 3 12 5 3 2 7 4 10 6 4 2 8 4 12 6 3 2 7 4 10 6 4 3 8 5 11 7 4 2 7 4 10 7 4 2 8 5 11 7 3 3 7 5 10 7 3 3 7 6 10 8 3 3 6 5 10 8 3 3 6 6 10 9 3 2 6 5 9 8 3 3 6 6 9 9 3 3 6 6 9 9 0 0 1 1 1 1-38 20-78 35-119 46-21-68-60-130-111-180z m122 213c46-12 90-30 132-52 68 82 108 185 111 293h-208c-1-82-13-163-35-241z m-34 507c-63-14-127-22-192-23v-209h226c-1 79-12 157-34 232z m-192 236v-224c61 1 122 8 181 22-41 114-106 192-181 202z m226-502h-226v-209c65-1 129-9 192-23 22 75 33 153 34 232z m35 34h208c-3 108-43 211-111 293-42-22-86-40-132-52 22-78 34-159 35-241z m73 320c0 0-1 1-1 1-3 3-6 6-9 9-3 3-6 6-9 9-3 3-6 5-9 8-4 3-7 6-10 9-3 2-7 5-10 7-3 3-7 6-10 9-3 2-7 4-10 7-3 2-7 5-11 7-3 3-6 5-10 7-3 2-7 5-11 7-3 2-7 4-10 6-4 2-8 4-12 6-3 2-7 4-10 6-4 2-8 4-12 5-4 2-7 4-11 5-4 2-8 4-12 6-4 1-8 2-11 4-4 1-9 3-13 4-4 2-7 3-11 4-4 2-8 3-13 4-4 1-7 2-11 3-1 1-3 1-4 1 51-50 90-112 111-180 41 11 81 26 119 46z m-594-79c-46 12-90 30-132 52-68-82-107-185-111-293h208c1 82 13 163 35 241z m226-743v224c-61-1-122-8-181-21 41-115 106-193 181-203z m-192 236c63 14 127 22 192 23v209h-226c1-79 12-157 34-232z m11 532c59-14 120-21 181-22v224c-75-10-140-88-181-202z m-45-266h226v209c-65 1-129 9-192 23-22-75-33-153-34-232z m122 454c-1 0-3 0-4-1-4-1-8-2-11-3-5-1-9-2-13-4-4-1-8-2-11-4-4-1-9-3-13-4-4-2-7-3-11-4-4-2-8-4-12-6-4-1-7-3-11-5-4-1-8-3-12-5-3-2-7-4-10-6-4-2-8-4-12-6-3-2-7-4-10-6-4-2-8-5-11-7-4-2-7-4-10-7-4-2-7-5-11-7-3-3-7-5-10-7-3-3-7-6-10-8-3-3-6-5-9-8-4-3-7-6-11-9-3-2-6-5-8-8-4-3-7-6-10-9-3-3-6-6-9-9 0 0-1-1-1-1 38-20 78-35 119-46 21 68 60 130 111 180z m-230-808c1 0 1-1 1-1 3-3 6-6 9-9 3-3 6-6 10-9 2-3 5-5 8-8 4-3 7-6 11-9 3-2 6-5 9-7 3-3 7-6 10-9 3-2 7-4 10-7 3-2 7-5 11-7 3-3 6-5 10-7 3-2 7-5 11-7 3-2 7-4 10-6 4-2 8-4 12-6 3-2 7-4 10-6 4-2 8-4 12-6 4-1 7-3 11-4 4-2 8-4 12-6 4-1 8-2 11-4 4-1 9-3 13-4 4-2 7-3 11-4 4-2 9-3 13-4 4-1 7-2 11-3 1-1 3-1 4-1-51 50-89 112-111 180-41-11-81-26-119-46z m73 320h-208c4-108 43-211 111-293 42 22 86 40 132 52-22 78-34 159-35 241z" horiz-adv-x="1000" />

<glyph glyph-name="web-2" unicode="&#xe863;" d="M938 503c0 1-1 3-1 4-65 179-236 307-437 307s-372-128-437-307c0-1-1-3-1-4-17-48-26-99-26-153 0-53 9-105 26-153 0-1 1-2 1-4 65-179 236-307 437-307s372 128 437 307c0 2 1 3 1 4 17 48 26 100 26 153 0 54-9 105-26 153z m-82 24h-191c-12 81-33 155-61 207 110-30 202-107 252-207z m-246-177c0-38-1-75-5-110h-210c-4 35-5 72-5 110 0 38 1 75 5 110h210c4-35 5-72 5-110z m-180 294c24 72 52 104 70 104s46-32 70-104c12-34 21-74 27-117h-194c6 43 16 83 27 117z m-34 90c-28-52-49-126-60-207h-192c50 100 142 177 252 207z m-293-384c0 38 5 75 15 110h210c-3-36-5-73-5-110 0-37 2-74 5-110h-210c-10 35-15 72-15 110z m41-177h192c11-81 32-155 60-207-110 30-202 107-252 207z m426-117c-24-72-52-104-70-104s-46 32-70 104c-11 34-21 74-27 117h194c-6-43-15-83-27-117z m34-90c28 52 49 126 61 207h191c-50-100-142-177-252-207z m278 274h-210c3 36 5 73 5 110 0 37-2 74-5 110h210c10-35 16-72 16-110 0-38-6-75-16-110z" horiz-adv-x="1000" />

<glyph glyph-name="web-3" unicode="&#xe864;" d="M500 826h-2-1 0c-263-1-475-215-474-477 1-263 214-476 477-475h2 1 0c263 1 475 215 474 477 0 263-214 476-477 475z m386-705l-182-1c17 65 27 139 27 218l217 1c-2-79-24-153-62-218z m-836 213l219 1c2-79 12-153 30-217l-185-1c-38 63-62 137-64 217z m62 245l184 1c-17-65-27-139-27-218l-220-1c2 79 25 154 63 218z m836-213l-217-1c-2 79-12 153-29 217l180 2c39-64 63-138 66-218z m-244-1l-190-1-2 217 160 1c19-64 30-138 32-217z m-192 243l-1 190c62-9 117-82 153-189l-152-1z m-28 190l1-190-152-1c34 107 89 181 151 191z m1-217l1-217-190-2c1 79 11 154 29 218l160 1z m-189-246l191 1 1-217-160-1c-19 64-30 138-32 217z m192-243l1-190c-62 9-117 82-153 189l152 1z m28-190l-1 190 152 1c-34-107-89-181-151-191z m-1 217l-1 218 190 1c-1-79-11-154-29-218l-160-1z m349 492l-170-1c-26 80-62 143-106 180 113-23 211-89 276-179z m-456 178c-44-37-80-101-105-182l-173-1c64 93 163 160 278 183z m-276-700l174 2c26-83 64-147 110-184-117 22-218 89-284 182z m459-180c44 37 81 102 106 184l172 1c-65-93-163-161-278-185z" horiz-adv-x="1000" />

<glyph glyph-name="prev-arrow-1" unicode="&#xe865;" d="M221 350c0 14 6 27 15 37l423 422c10 10 23 15 37 15s27-5 37-15l31-31c9-10 15-23 15-36 0-14-6-27-15-37l-355-355 354-355c20-20 20-53 0-73l-31-31c-10-10-23-15-37-15s-27 5-36 15l-423 422c-9 10-15 23-15 37z" horiz-adv-x="1000" />

<glyph glyph-name="prev-arrow-3" unicode="&#xe866;" d="M15 350c0 14 6 28 16 38l350 350c10 10 23 16 37 16 15 0 28-6 38-16l32-32c10-10 15-23 15-37 0-14-5-27-15-37l-207-206h652c29 0 52-25 52-55v-45c0-29-23-52-52-52h-650l205-205c10-10 15-23 15-38 0-14-5-27-15-37l-32-32c-10-10-23-16-38-16-14 0-27 6-37 16l-350 350c-10 10-16 24-16 38z" horiz-adv-x="1000" />

<glyph glyph-name="prev-arrow-4" unicode="&#xe867;" d="M30 374l303 304c13 13 35 13 49 0 13-13 13-35 0-49l-246-245h811c19 0 34-15 34-34 0-19-15-34-34-34h-811l246-246c13-13 13-35 0-48-14-13-35-13-49 0l-303 304c-14 13-14 35 0 48z" horiz-adv-x="1000" />

<glyph glyph-name="prev-arrow-6" unicode="&#xe868;" d="M453 655v-270h529v-90h-529v-250l-435 305 435 305z" horiz-adv-x="1000" />

<glyph glyph-name="prev-arrow-7" unicode="&#xe869;" d="M24 350l449-396v257h503v278h-503v257l-449-396z m896 84v-168h-503v-189l-309 273 309 273v-189l503 0 0 0z" horiz-adv-x="1000" />

<glyph glyph-name="prev-arrow-8" unicode="&#xe86a;" d="M51 350l899 480v-960l-899 480z" horiz-adv-x="1000" />

<glyph glyph-name="prevt-arrow-2" unicode="&#xe86b;" d="M235 350c0 10 4 20 11 27l454 453c8 7 17 11 27 11 10 0 20-4 27-11 15-15 15-39 0-54l-427-426 427-426c15-15 15-39 0-54-15-15-39-15-54 0l-454 453c-7 7-11 17-11 27z" horiz-adv-x="1000" />

<glyph glyph-name="prevt-arrow-5" unicode="&#xe86c;" d="M38 295l329-329c29-29 77-29 106 0l68 68c13 13 22 32 22 51 0 20-6 39-22 52l-91 90h455c42 0 78 36 78 77v94c0 39-36 71-78 71h-451l87 87c13 13 22 32 22 55 0 19-6 39-22 55l-68 67c-13 13-32 23-52 23-19 0-38-6-51-23l-329-329c-16-16-23-35-23-54-3-20 4-39 20-55z m45 64l329 329c6 7 9 7 16 0l68-67c3-4 3-7 3-10 0-3 0-7-3-10l-142-142c-10-9-13-22-7-35 7-13 16-20 29-20h529c7 0 13-3 13-6v-94c0-6-6-12-13-12h-535c-13 0-26-7-29-20-3-13-3-26 6-35l145-145c4-4 4-7 4-7 0-3 0-3-4-6l-67-68c-4-3-10-6-16 0l-329 329c-4 3-4 6-4 10 4 3 4 6 7 9z" horiz-adv-x="1000" />

<glyph glyph-name="shopping-bag-1" unicode="&#xe86d;" d="M902-84l-70 673c-2 14-14 25-28 25h-133v30c0 94-77 171-171 171-94 0-171-77-171-171v-30h-133c-14 0-26-11-28-25l-70-673c-1-8 1-16 7-22 5-6 12-9 20-9h750c8 0 15 3 20 9 6 6 8 14 7 22z m-518 728c0 64 52 116 116 116 64 0 116-52 116-116v-30h-232v30z m-228-704l65 618h108v-61c0-15 12-28 27-28s28 13 28 28v61h232v-61c0-15 12-28 28-28s27 13 27 28v61h108l65-618h-688z" horiz-adv-x="1000" />

<glyph glyph-name="shopping-bag-2" unicode="&#xe86e;" d="M855 565c0 4-4 7-7 7h-134v37c0 118-96 214-214 214-118 0-214-96-214-214v-37h-134c-3 0-7-3-7-7l-52-680c0-2 1-4 2-6 2-1 4-2 6-2h798c2 0 4 1 6 2 1 2 2 4 2 6l-52 680z m-510 44c0 85 69 155 155 155 86 0 155-70 155-155v-37h-310l0 37 0 0z m-30-244c-41 0-74 33-74 74 0 29 15 56 45 68v-68c0-17 13-30 29-30 16 0 30 13 30 30v68c29-12 44-39 44-68 0-41-33-74-74-74z m370 0c-41 0-74 33-74 74 0 29 15 56 44 68v-68c0-17 14-30 30-30 16 0 30 13 30 30v68c29-12 44-39 44-68 0-41-33-74-74-74z" horiz-adv-x="1000" />

<glyph glyph-name="shopping-bags-3" unicode="&#xe86f;" d="M964 498c-5 4-11 7-17 6h-250v110c0 109-88 197-197 197-109 0-197-88-197-197v-110h-249c-7 0-14 0-18-6-5-5-7-11-6-17l87-476c12-66 70-115 137-116h492c68 2 125 50 137 117l87 475c1 6-1 12-6 17z m-615 116c0 83 68 151 151 151 83 0 151-68 151-151v-110h-302l0 110 0 0z m487-602c-7-44-45-76-90-77h-492c-44 1-82 33-90 77l-83 445h838l-83-445z m-185 242v70c0 13 10 23 23 23s23-10 23-23v-70c0-12-10-23-23-23-13 0-23 11-23 23z m-348 0v70c0 13 10 23 23 23s23-10 23-23v-70c0-12-10-23-23-23-13 0-23 11-23 23z" horiz-adv-x="1000" />

<glyph glyph-name="shopping-bags-4" unicode="&#xe870;" d="M52 438l88-477c8-47 49-81 97-82h526c48 1 89 35 97 82l89 477h-897z m287-213c0-14-12-25-25-25s-25 11-25 25v74c0 14 11 25 25 25s25-11 25-25v-74z m372 0c0-14-11-25-25-25s-24 11-24 25v74c0 14 11 25 24 25s25-11 25-25v-74z m-372 238h-50v147c0 116 94 211 211 211s211-95 211-211v-147h-49v147c0 89-73 161-162 161s-161-72-161-161v-147l0 0z" horiz-adv-x="1000" />

<glyph glyph-name="shopping-cart-1" unicode="&#xe871;" d="M519-17c0-62-51-113-114-113-63 0-113 51-113 113 0 63 50 114 113 114 63 0 114-51 114-114z m217 114c-62 0-113-51-113-114s51-113 113-113 114 51 114 113-51 114-114 114z m194 116h-592l-12 67h487c14 0 27 9 32 22l116 292c7 18-2 38-20 45-4 1-8 2-12 2h-663l-28 160c-3 17-17 29-34 29h-134c-19 0-34-15-34-35s15-34 34-34h105l99-589c3-17 18-29 35-29h621c19 0 34 16 34 35 0 19-15 35-34 35z" horiz-adv-x="1000" />

<glyph glyph-name="shopping-cart-2" unicode="&#xe872;" d="M776 153c-65 0-118-53-118-118 0-65 53-118 118-118 65 0 118 53 118 118 0 65-53 118-118 118z m0-165c-26 0-47 21-47 47s21 47 47 47 47-21 47-47-21-47-47-47z m190 621c-7 9-17 14-28 14h-693l-31 133c-4 16-19 27-35 27h-117c-19 0-35-16-35-35s16-36 35-36h89l115-481c4-16 18-27 35-27h551c16 0 30 11 34 27l86 348c3 10 0 21-6 30z m-142-334h-495l-67 277h631l-69-277z m-476-122c-65 0-118-53-118-118 0-65 53-118 118-118 65 0 118 53 118 118 0 65-53 118-118 118z m0-165c-26 0-47 21-47 47s21 47 47 47 47-21 47-47-21-47-47-47z" horiz-adv-x="1000" />

<glyph glyph-name="vimeo-1" unicode="&#xe873;" d="M966 605c-11-57-82-256-212-432-57-74-123-147-208-198-31-18-93-42-135-24-81 34-109 174-133 267-13 56-26 108-43 156-13 36-19 73-39 106-32 55-79 2-127 10-21 3-27 19-39 43 71 57 133 125 215 173 26 15 70 32 105 21 33-9 60-54 72-91 13-42 21-94 28-136 12-74 8-186 63-244 60-65 106 25 131 71 21 40 40 81 44 119 7 90-36 102-118 96 47 144 183 204 223 210 49 7 122 6 156-37 24-31 24-71 17-110z" horiz-adv-x="1000" />

<glyph glyph-name="vimeo-2" unicode="&#xe874;" d="M921 712c-73 78-305 84-386-181-7-24 17-45 40-35 17 7 35 11 52 11 26 0 28-9 29-16 12-60-77-193-110-217-36 40-70 295-72 307-23 146-98 170-157 165-72-7-170-109-273-200-11-10-13-28-4-40l41-53c10-12 27-15 40-6 35 24 49 33 55 36 77-26 79-542 280-542 199 0 654 569 465 771z m-465-713c-150 0-136 542-283 542-10 0-20-2-62-30l-8 9c59 54 171 163 220 168 94 9 92-131 97-141 37-250 69-334 125-334 59 0 171 175 171 267 0 26-8 46-22 61-19 20-50 27-85 24 70 156 228 152 269 108 136-146-253-674-422-674z" horiz-adv-x="1000" />

<glyph glyph-name="checked-1" unicode="&#xe875;" d="M975 618l-625-624-325 326 88 89 237-237 535 534 90-88z" horiz-adv-x="1000" />

<glyph glyph-name="checked-2" unicode="&#xe876;" d="M708 499c14-14 14-37 0-52l-247-246c-14-14-37-14-51 0l-118 117c-14 15-14 38 0 52 15 14 38 14 52 0l92-91 220 220c14 15 37 15 52 0z m262-149c0-260-210-470-470-470-260 0-470 210-470 470 0 260 210 470 470 470 260 0 470-210 470-470z m-73 0c0 219-178 397-397 397-219 0-397-178-397-397 0-219 178-397 397-397 219 0 397 178 397 397z" horiz-adv-x="1000" />

<glyph glyph-name="checked-3" unicode="&#xe877;" d="M500 815c-256 0-465-209-465-465s209-465 465-465 465 209 465 465-209 465-465 465z m260-343l-297-294c-18-18-46-19-64-2l-158 144c-18 17-19 46-3 65 17 19 46 20 65 2l125-114 266 266c18 18 47 18 66 0 19-19 19-48 0-67z" horiz-adv-x="1000" />

<glyph glyph-name="checked-4" unicode="&#xe878;" d="M769 594l56-50-395-440-254 242 51 54 199-190 343 384z m206 120v-728c0-61-50-111-111-111h-728c-61 0-111 50-111 111v728c0 61 50 111 111 111h728c61 0 111-50 111-111z m-74 0c0 20-17 37-37 37h-728c-20 0-37-17-37-37v-728c0-20 17-37 37-37h728c20 0 37 17 37 37l0 728 0 0z" horiz-adv-x="1000" />

<glyph glyph-name="close-1" unicode="&#xe879;" d="M653 350l307-307-152-153-308 308-307-308-153 153 308 307-308 308 153 152 307-307 308 307 152-152-307-308z" horiz-adv-x="1000" />

<glyph glyph-name="close-2" unicode="&#xe87a;" d="M936 14c9-10 14-22 14-35 0-14-5-26-14-35l-30-30c-9-9-21-14-35-14h0c-13 0-25 5-34 14l-337 337-336-337c-10-9-22-14-35-14-13 0-26 5-35 14l-30 30c-9 9-14 21-14 35 0 13 5 25 14 35l337 336-337 337c-19 19-19 50 0 69l30 30c9 9 22 14 35 14 13 0 25-5 35-14l336-337 337 337c9 9 21 14 34 14 14 0 26-5 35-14l30-30c9-9 14-21 14-35 0-13-5-25-14-34l-337-337 337-336z" horiz-adv-x="1000" />

<glyph glyph-name="close-3" unicode="&#xe87b;" d="M948-45c15-15 15-38 0-53-14-15-39-16-54-1l-394 395-395-395c-15-15-39-15-54 0-15 15-15 39 0 54l395 395-395 394c-14 15-14 39 0 53 15 16 39 16 54 1l395-394 394 394c0 1 1 1 1 1 15 15 40 15 54-1 15-15 15-39-1-54l-394-394 394-395z" horiz-adv-x="1000" />

<glyph glyph-name="close-4" unicode="&#xe87c;" d="M836 686c-185 185-487 185-672 0-185-185-185-487 0-672 93-93 214-139 336-139 122 0 243 46 336 139 185 185 185 487 0 672z m-140-532c-8-8-18-12-28-12-10 0-20 4-28 12l-140 140-140-140c-8-8-18-12-28-12-10 0-20 4-28 12-15 16-15 41 0 56l140 140-140 140c-15 16-15 41 0 56 16 16 41 16 56 0l140-140 140 140c16 15 41 15 56 0 15-15 15-40 0-56l-140-140 140-140c16-15 16-40 0-56z" horiz-adv-x="1000" />

<glyph glyph-name="star-1" unicode="&#xe87d;" d="M709 234l87-339-296 187-296-187 86 339-263 224 343 22 130 325 129-325 344-22-264-224z" horiz-adv-x="1000" />

<glyph glyph-name="star-2" unicode="&#xe87e;" d="M968 460c-7 19-23 33-43 34l-272 25-107 251c-8 18-26 30-46 30-20 0-38-11-46-30l-107-251-271-25c-20-1-37-15-43-34-7-19-1-40 14-53l205-180-60-266c-5-20 3-40 19-52 9-6 19-9 29-9 9 0 18 2 26 7l234 140 234-140c17-11 39-10 55 2 16 12 24 32 19 52l-60 266 205 180c15 13 21 34 15 53z m-263-192c-14-12-20-31-16-49l57-251-220 132c-8 5-17 7-26 7s-18-2-26-7l-220-132 57 251c4 18-2 37-16 49l-194 170 256 23c19 2 35 13 42 30l101 237 101-237c7-17 23-28 42-30l256-23-194-170z" horiz-adv-x="1000" />

<glyph glyph-name="minus-1" unicode="&#xe87f;" d="M300 386h400v-72h-400v72z m665-36c0-124-48-241-136-329-88-88-205-136-329-136s-241 48-329 136-136 205-136 329 48 241 136 329 205 136 329 136 241-48 329-136 136-205 136-329z m-73 0c0 216-176 392-392 392s-392-176-392-392 176-392 392-392 392 176 392 392z" horiz-adv-x="1000" />

<glyph glyph-name="minus-2" unicode="&#xe880;" d="M960 350c0-21-17-38-38-38h-844c-21 0-38 17-38 38s17 38 38 38h844c21 0 38-17 38-38z" horiz-adv-x="1000" />

<glyph glyph-name="minus-3" unicode="&#xe881;" d="M849 815h-698c-64 0-116-52-116-116v-698c0-64 52-116 116-116h698c64 0 116 52 116 116v698c0 64-52 116-116 116z m58-814c0-32-26-58-58-58h-698c-32 0-58 26-58 58v698c0 32 26 58 58 58h698c32 0 58-26 58-58v-698z m-204 349c0-16-13-29-29-29h-348c-16 0-29 13-29 29 0 16 13 29 29 29h348c16 0 29-13 29-29z" horiz-adv-x="1000" />

<glyph glyph-name="minus-4" unicode="&#xe882;" d="M500 815c-256 0-465-209-465-465s209-465 465-465 465 209 465 465-209 465-465 465z m203-504h-406c-22 0-39 18-39 39s17 39 39 39h406c22 0 39-18 39-39s-17-39-39-39z" horiz-adv-x="1000" />

<glyph glyph-name="plus-1" unicode="&#xe883;" d="M832 682c-88 89-206 138-332 138s-244-49-332-138c-89-88-138-206-138-332s49-244 138-332c88-89 207-138 332-138s244 49 332 138c89 88 138 207 138 332s-49 244-138 332z m-332-729c-219 0-397 178-397 397s178 397 397 397 397-178 397-397-178-397-397-397z m37 434h165v-74h-165v-165h-74v165h-165v74h165v165h74v-165z" horiz-adv-x="1000" />

<glyph glyph-name="plus-2" unicode="&#xe884;" d="M977 350c0-26-22-48-48-48h-381v-381c0-26-22-48-48-48-26 0-48 22-48 48v381h-381c-26 0-48 22-48 48 0 26 22 48 48 48h381v381c0 26 22 48 48 48 26 0 48-22 48-48v-381h381c26 0 48-22 48-48z" horiz-adv-x="1000" />

<glyph glyph-name="plus-3" unicode="&#xe885;" d="M735 350c0-16-13-29-29-29h-177v-177c0-16-13-29-29-29s-29 13-29 29v177h-177c-16 0-29 13-29 29s13 29 29 29h177v177c0 16 13 29 29 29s29-13 29-29v-177h177c16 0 29-13 29-29z m235 362v-724c0-60-48-108-108-108h-724c-60 0-108 48-108 108v724c0 60 48 108 108 108h724c60 0 108-48 108-108z m-59 0c0 27-22 49-49 49h-724c-27 0-49-22-49-49v-724c0-27 22-49 49-49h724c27 0 49 22 49 49v724z" horiz-adv-x="1000" />

<glyph glyph-name="plus-4" unicode="&#xe886;" d="M500 825c-262 0-475-213-475-475s213-475 475-475 475 213 475 475-213 475-475 475z m208-515h-168v-168c0-22-18-39-40-39s-40 17-40 39v168h-168c-22 0-39 18-39 40s17 40 39 40h168v168c0 22 18 39 40 39s40-17 40-39v-168h168c22 0 39-18 39-40 0-22-17-40-39-40z" horiz-adv-x="1000" />

<glyph glyph-name="share-1" unicode="&#xe887;" d="M926 40c0-86-69-155-155-155s-155 69-155 155c0 13 2 25 5 37l-284 162c-28-27-66-44-108-44-86 0-155 70-155 155 0 86 69 155 155 155 42 0 80-17 108-44l284 162c-3 12-5 24-5 37 0 86 70 155 155 155s155-69 155-155-69-155-155-155c-45 0-85 19-114 50l-280-160c4-14 7-29 7-45 0-16-3-31-7-45l280-160c29 31 69 50 114 50 86 0 155-69 155-155z" horiz-adv-x="1000" />

<glyph glyph-name="share-2" unicode="&#xe888;" d="M775 211c-54 0-102-27-132-68l-260 133c5 15 7 30 7 47 0 21-4 42-12 61l272 164c30-36 75-58 125-58 92 0 166 74 166 165s-74 165-166 165c-91 0-165-74-165-165 0-21 4-41 11-60l-272-164c-30 35-75 57-124 57-91 0-166-74-166-165 0-92 75-166 166-166 55 0 104 28 134 69l259-132c-5-15-8-32-8-49 0-91 74-165 165-165 92 0 166 74 166 165 0 91-74 166-166 166z m0 554c61 0 111-49 111-110 0-61-50-110-111-110s-110 49-110 110c0 61 50 110 110 110z m-550-553c-61 0-110 50-110 111 0 60 49 110 110 110 60 0 110-50 110-110 0-61-50-111-110-111z m550-277c-60 0-110 49-110 110 0 61 50 110 110 110s111-49 111-110c0-61-50-110-111-110z" horiz-adv-x="1000" />

<glyph glyph-name="quote-1" unicode="&#xe889;" d="M433 751v-134c-147 0-267-120-267-267h267v-401h-400v401c0 221 179 401 400 401z m535-134v134c-221 0-401-180-401-401v-401h401v401h-268c0 147 120 267 268 267z" horiz-adv-x="1000" />

<glyph glyph-name="quote-2" unicode="&#xe88a;" d="M968 751v-401c0-221-180-401-401-401v134c147 0 267 120 267 267h-267v401h401z m-935-401h267c0-147-120-267-267-267v-134c221 0 400 180 400 401v401h-400v-401z" horiz-adv-x="1000" />

<glyph glyph-name="quote-5" unicode="&#xe88b;" d="M779 437c-1 21 0 77 54 156 5 6 4 14-1 19-22 23-36 37-46 46-13 13-18 19-27 27-5 5-14 5-20 0-95-82-200-253-185-462 9-123 99-212 213-212 118 0 213 96 213 213 0 113-89 206-201 213z m-12-396c-98 0-175 78-183 184 0 0 0 0 0 0-17 235 123 388 165 428 4-4 9-8 16-16 8-8 20-20 37-37-66-102-54-174-48-185 2-5 8-8 13-8 101 0 183-82 183-183 0-101-82-183-183-183z m-520 396c-2 20-1 77 54 156 4 6 3 14-2 19-22 23-36 37-45 46-13 13-19 19-27 27-6 5-15 5-20 0-95-82-201-253-185-462v0c9-123 98-212 212-212 118 0 213 96 213 213 0 113-89 206-200 213z m-13-396c-98 0-175 78-183 184v0c-17 235 123 388 165 428 4-4 9-8 16-16 8-8 20-20 37-37-66-102-54-174-48-185 3-5 8-8 13-8 101 0 183-82 183-183 0-101-82-183-183-183z" horiz-adv-x="1000" />

<glyph glyph-name="quote-6" unicode="&#xe88c;" d="M236 685c-116 0-210-95-210-211 0-111 88-203 198-210 2-20 0-76-53-154-4-6-4-14 1-19 22-22 36-36 46-46 12-12 18-18 26-26 3-2 6-4 10-4 3 0 7 2 10 4 93 82 198 250 182 457-8 121-97 209-210 209z m18-635c-4 4-9 9-15 16-9 8-20 20-37 37 65 101 53 172 48 183-3 4-8 8-14 8-99 0-180 81-180 180 0 100 81 181 180 181 97 0 173-76 181-182 17-232-121-383-163-423z m719 426v0c-9 121-98 209-211 209-116 0-210-95-210-211 0-111 88-203 198-210 2-20 1-76-53-154-4-6-3-14 2-19 22-22 35-36 45-46 12-12 18-18 26-26 3-2 7-4 10-4 4 0 7 2 10 4 94 82 198 250 183 457z m-193-426c-4 4-8 9-15 16-8 8-20 20-37 37 65 101 53 172 48 183-3 4-8 8-14 8-99 0-180 81-180 180 0 100 81 181 180 181 97 0 174-76 181-182v0c17-232-121-383-163-423z" horiz-adv-x="1000" />

<glyph glyph-name="quotes-3" unicode="&#xe88d;" d="M478 166c0-125-102-227-227-227-125 0-226 102-226 227 0 0 0 0 0 0 0 7-13 367 221 539 211 155-17-33-68-325 23 8 48 12 73 12 125 0 227-101 227-226z m271 226c-26 0-50-4-73-12 51 292 278 480 67 325-234-172-220-532-220-539 0 0 0 0 0 0 0-125 101-227 226-227 125 0 226 102 226 227s-101 226-226 226z" horiz-adv-x="1000" />

<glyph glyph-name="quotes-4" unicode="&#xe88e;" d="M754-5c-211-155 17 34 68 325-23-7-48-12-73-12-125 0-226 101-226 226 0 125 101 227 226 227 125 0 226-102 226-227 0 0 0 0 0 0 0-7 14-367-221-539z m-277 539c0 125-101 226-226 226-125 0-226-101-226-226 0-125 101-226 226-226 26 0 50 5 73 12-51-291-278-480-67-325 234 172 221 532 220 539 0 0 0 0 0 0z" horiz-adv-x="1000" />

<glyph glyph-name="chat-1" unicode="&#xe88f;" d="M871 783h-742c-51 0-93-42-93-92v-511c0-51 42-93 93-93h123v-155c0-6 4-12 10-14 2-1 4-1 6-1 4 0 8 1 11 5l151 165h441c51 0 93 42 93 93v511c0 50-42 92-93 92z m62-603c0-34-28-62-62-62h-415l56 64c5 7 5 17-2 22-6 6-16 5-22-2l-77-89-128-141v130c0 9-7 16-15 16h-139c-34 0-62 28-62 62v511c0 33 28 61 62 61h742c34 0 62-28 62-61v-511z" horiz-adv-x="1000" />

<glyph glyph-name="chat-2" unicode="&#xe890;" d="M844 639c-84 76-202 116-342 116-112 0-214-31-296-91-76-54-130-130-153-214-20-69-17-140 9-204 25-64 73-120 137-163-4-35-19-67-44-92l-46-46h65c65 0 127 27 173 74 48-13 103-20 155-20 140 0 258 40 341 117 38 35 68 76 88 122 19 44 29 91 29 140 0 99-41 192-116 261z m-342-586c-53 0-109 8-156 22l-17 5-11-13c-23-27-53-47-85-58 13 27 21 57 21 88l1 16-14 8c-120 72-171 190-136 315 36 132 173 265 397 265 126 0 232-35 305-102 64-59 99-137 99-221 0-157-127-325-404-325z" horiz-adv-x="1000" />

<glyph glyph-name="chat-3" unicode="&#xe891;" d="M977 700v-525c0-51-44-95-96-95h-453l-155-170c-3-3-7-5-11-5-2 0-4 0-6 1-6 2-10 8-10 15v159h-127c-52 0-96 44-96 95v525c0 51 44 95 96 95h762c52 0 96-44 96-95z" horiz-adv-x="1000" />

<glyph glyph-name="chat-4" unicode="&#xe892;" d="M985 379c0-206-171-399-483-399-55 0-112 7-163 21-49-50-114-78-182-78h-69l48 49c27 26 43 60 47 97-112 74-168 180-168 292 0 206 190 416 487 416 314 0 483-193 483-398z" horiz-adv-x="1000" />

<glyph glyph-name="chat-5" unicode="&#xe893;" d="M176 435c0 9 7 16 16 16h200c9 0 16-7 16-16 0-8-7-15-16-15h-200c-9 0-16 7-16 15z m417-77h-401c-9 0-16-7-16-15 0-9 7-16 16-16h401c8 0 15 7 15 16 0 8-7 15-15 15z m0-92h-401c-9 0-16-7-16-16 0-8 7-15 16-15h401c8 0 15 7 15 15 0 9-7 16-15 16z m370 416v-326c0-50-41-91-92-91h-16v-155c0-6-4-12-10-14-2-1-4-1-6-1-4 0-8 2-11 5l-81 89v-1c0-51-41-92-92-92l-256-1-150-165c-3-3-7-5-11-5-2 0-4 1-6 1-6 3-10 8-10 15v154h-93c-51 0-92 41-92 91v327c0 50 41 91 92 91l124 0v79c0 51 41 92 92 92l526-1c51 0 92-41 92-92z m-247-168c0 33-27 60-61 60l-386-1c0 0 0 0 0 0l-140 0c-34 0-61-27-61-60v-327c0-33 27-60 61-60h109c8 0 15-7 15-16v-129l128 140c3 3 7 5 11 5l263 1c34 0 61 27 61 61v41 285l0 0z m216 168c0 34-27 61-61 61 0 0 0 0 0 0l-526 1c-34 0-61-27-61-61v-79l371 1c51 0 92-41 92-91v-279l77-85v130c0 9 7 16 15 16h32c34 0 61 27 61 60h0v326l0 0z" horiz-adv-x="1000" />

<glyph glyph-name="chat-6" unicode="&#xe894;" d="M28 96h118v-182l202 182h358v499h-678v-499z m502 163h-326v55h326v-55z m-386 173h445v-55h-445v55z m829 354v-498h-104v-182l-108 97v447h-467v136l679 0 0 0z" horiz-adv-x="1000" />

<glyph glyph-name="shiping-1" unicode="&#xe895;" d="M956 352l-54 70 0 0-87 174c-5 10-15 16-26 16h-125v29c0 17-13 30-29 30h-486c-16 0-29-13-29-30 0-16 13-29 29-29h457v-204c0-16 13-29 29-29h227l42-54v-151h-55c-12 51-58 89-113 89-54 0-100-38-113-89h-172c-13 51-59 89-113 89-55 0-101-38-113-89h-76c-16 0-29-13-29-29 0-16 13-29 29-29h76c14-50 59-87 113-87 54 0 99 37 112 87h174c13-50 58-87 112-87 54 0 99 37 113 87h84c16 0 29 13 29 29v189c0 7-2 13-6 18z m-292 202h107l58-117h-165v117z m-326-466c-32 0-58 26-58 58s26 58 58 58c32 0 58-26 58-58 0-32-26-58-58-58z m398 0c-32 0-58 26-58 58s26 58 58 58c32 0 58-26 58-58 0-32-26-58-58-58z m-488 176h-134c-16 0-29 13-29 29 0 16 13 29 29 29h134c17 0 30-13 30-29s-13-29-30-29z m67 114h-248c-16 0-29 13-29 29 0 16 13 30 29 30h248c17 0 30-14 30-30s-13-29-30-29z m-230 144c0 16 13 29 29 29h249c16 0 29-13 29-29 0-16-13-29-29-29h-249c-16 0-29 13-29 29z" horiz-adv-x="1000" />

<glyph glyph-name="shiping-2" unicode="&#xe896;" d="M845 488h-149v129c80-18 110-65 149-129z m116-139v-162c0-15-13-27-27-27h-48c-9-47-51-82-101-82-49 0-92 35-101 82h-274c-10-47-52-82-102-82-49 0-91 35-101 82h-54c-15 0-27 12-27 27v81h-59c-15 0-27 12-27 27 0 15 12 27 27 27h242c15 0 27 12 27 27 0 15-12 27-27 27h-242c-15 0-27 12-27 27 0 15 12 27 27 27h163c14 0 26 12 26 27 0 18-11 25-27 25h-135c-15 0-27 12-27 27s12 27 27 27h32v60c0 14 12 27 27 27h489v-162c0-15 12-27 27-27h208c0 0 84-6 84-85z m-618-133c-31 31-84 9-84-35 0-44 53-66 84-35 20 19 20 51 0 70z m477 0c-31 31-84 9-84-35 0-44 53-66 84-35 19 19 19 51 0 70z" horiz-adv-x="1000" />

<glyph glyph-name="support-1" unicode="&#xe897;" d="M835 430h-2v57c0 180-147 327-327 327-181 0-327-147-327-327v-57h-14c-51 0-90-44-90-96v-143c-1-51 39-92 89-93 0 0 1 0 1 0h85c12 0 21 10 21 22 0 1 0 1 0 2v281c0 14-9 27-21 27h-25v57c0 155 125 281 281 281 155 0 281-126 281-281v-57h-25c-13 0-21-13-21-27v-281c-1-12 7-23 19-24 1 0 1 0 2 0h26l-2-4c-35-46-89-72-146-72-12 61-72 101-134 88-53-10-90-56-91-110 1-63 52-114 115-114 31 1 61 14 83 36 14 15 24 34 27 55 72 0 139 33 183 91l21 32c50 3 81 34 81 79v144c0 49-37 107-90 107z m-610-287h-60c-25 1-44 22-44 46 0 1 0 1 0 2v143c0 26 19 50 44 50h60v-241z m354-189c-12-14-30-22-49-22-37 1-68 31-69 68 0 37 30 68 68 68 37 0 67-31 67-68 0 0 0 0 0 0 1-17-5-34-17-46z m300 225c0-31-30-36-44-36h-48v241h48c25 0 44-35 44-62v-143z" horiz-adv-x="1000" />

<glyph glyph-name="support-2" unicode="&#xe898;" d="M324 433v135c0 14-5 28-14 39 6 50 19 83 42 106 30 30 78 44 148 44 85 0 136-20 163-64 13-21 22-49 27-87-9-10-14-24-14-38v-135c0-8 1-15 4-22-22-6-55-10-105-10-3 0-7 0-10 0-10 9-23 15-37 15h-39c-30 0-53-24-53-54s24-53 53-53h39c12 0 23 4 33 11 4 0 9 0 13 0 18 0 36 0 52 2-44-40-95-59-126-59-47 0-140 42-184 139 5 9 8 20 8 31z m-104-32h46c18 0 32 14 32 32v135c0 12-6 22-15 28 10 111 53 187 217 187 94 0 153-24 185-76 19-30 28-69 32-111-9-6-15-16-15-28v-135c0-15 10-28 25-31-21-14-64-28-152-28-8 0-15 1-23 1-4 9-13 15-24 15h-39c-15 0-27-13-27-28 0-15 12-27 27-27h39c9 0 17 4 22 11 8 0 16 0 24 0 100 0 163 17 189 51 1 1 2 3 3 4h14c18 0 32 14 32 32v135c0 18-14 32-32 32h-17c-5 51-16 95-39 131-40 66-114 98-224 98-110 0-184-32-224-98-23-36-34-80-39-131h-17c-18 0-32-14-32-32v-135c0-18 14-32 32-32z m666-405c-2-5-49-125-386-125s-384 120-385 125c-1 2-1 5-1 7 4 24 26 148 76 182 30 20 136 77 180 100 5 3 11 2 16-1 23-19 49-31 76-37 5-1 9-4 10-9l28-73 28 73c1 5 5 8 10 9 27 6 53 18 76 37 5 3 11 4 16 1l1 0c45-24 149-80 179-101 44-30 66-115 76-181 1-2 0-5 0-7z m-157 111h-134v-28h134v28z" horiz-adv-x="1000" />

<glyph glyph-name="support-3" unicode="&#xe899;" d="M203 468v-295c0-15-12-27-27-27h-118c-16 0-28 12-28 27v295c0 15 12 28 28 28h118c15 0 27-13 27-28z m461-263v60h-120c-15 0-27 13-27 28 0 26 10 51 29 70 40 41 126 126 126 126 8 8 20 11 30 6s17-14 17-25v-149h2c15 0 28-13 28-28s-13-28-28-28h-2v-60c0-16-12-28-27-28-15 0-28 12-28 28z m0 116v83c-27-27-59-60-79-80-1-1-2-2-3-3h82l0 0z m-195-116c0 15-13 27-28 27h-110c1 1 2 2 3 3 41 41 127 127 127 127 5 5 8 12 8 20v14c0 56-46 102-102 102-56 0-101-46-101-102v0c0-15 12-27 28-27s27 12 27 27c0 26 20 46 46 46 26 0 47-20 47-46v-3c-23-22-86-86-119-119-18-18-29-44-29-69 0-16 12-28 28-28h147c15 0 28 12 28 28z m31 560c138 0 255-95 288-223 11 6 23 9 37 9h17c-37 154-176 269-342 269s-305-115-342-269h18c13 0 25-3 36-9 33 128 150 223 288 223z m282-663c-27-63-90-108-164-108h-36c-11 34-44 59-82 59-48 0-86-39-86-87s38-86 86-86c38 0 71 25 82 59h36c100 0 186 63 219 151h-12c-16 0-30 5-43 12z m161 394h-118c-16 0-28-13-28-28v-295c0-15 12-27 28-27h118c15 0 27 12 27 27v295c0 15-12 28-27 28z" horiz-adv-x="1000" />

<glyph glyph-name="youtube-1" unicode="&#xe89a;" d="M605 500c-1 4-1 10-1 17v28 174h54v-201c0-6 2-10 6-14 4-4 9-5 15-5 6 0 11 1 15 5 5 4 7 8 7 14v201h51v-258h-65l1 20c-6-8-11-15-17-19-7-4-14-7-22-7-10 0-18 3-24 7-6 4-11 9-15 17-1 3-2 7-3 10 0 4-1 7-2 11z m-193 125c0 23 2 43 6 58 6 15 14 27 25 33 12 9 26 13 44 13 15 0 28-2 39-7 11-5 19-12 26-23 5-7 9-16 11-26 3-10 4-24 4-42v-67c0-24-1-41-4-52-1-9-5-20-12-32-8-10-16-17-25-21-11-5-22-7-36-7-14 0-27 2-38 6-11 3-18 10-23 18-5 7-10 17-13 29-3 11-4 29-4 52v68z m52-103c0-7 3-13 8-18 5-5 11-8 18-8 7 0 13 3 18 8 5 5 8 11 8 18v137c0 8-3 14-8 20-5 5-11 8-18 8-7 0-13-3-18-8-5-6-8-12-8-20v-137z m459-244v-278c0-17-4-33-11-48-7-14-17-27-30-38-13-11-27-20-44-26-17-6-35-10-54-10h-568c-19 0-37 4-54 10-17 6-31 15-44 26-12 11-23 24-30 38-7 15-11 31-11 48v278c0 17 4 32 11 47 7 15 18 28 30 39 13 11 28 19 44 26 17 6 35 10 54 10h568c19 0 37-4 54-10 17-7 31-15 44-26 13-11 23-24 30-39 7-15 11-30 11-47z m-669-16h69v45h-188v-43h61v-295h58v293z m211-43h-58v-156c0-12 0-20 1-26 0-7-1-11-3-12-2-7-7-12-15-15-8-3-14 1-19 14 0 1-1 5 0 12 0 6 0 15 0 26l-1 157h-58l1-155c0-12 0-22 0-31-1-8-1-14 0-18 1-7 2-14 3-22 1-8 5-14 12-19 7-4 15-6 23-6 10 0 19 1 27 4 9 3 17 7 24 12 8 6 13 11 16 17l-1-31 48-1v250z m188-48c0 24-8 42-26 53-6 3-13 5-21 5-13 0-29-7-48-20v98h-58v-335l48 1 4 21c16-13 30-21 42-24 13-3 23-2 32 3 9 5 15 14 20 26 5 12 7 26 7 42v130l0 0z m187-134c-1 6-2 13-3 20h-44v-6-22c0-7-2-12-7-16-5-4-11-6-17-6h-9c-7 0-13 2-17 6-4 4-7 9-7 16v2 25 33h101v35c0 13 0 25-1 37 0 12-1 22-3 28-1 12-7 21-15 28-9 7-19 12-31 14-11 3-23 3-35 2-12-2-23-6-32-12-11-8-19-18-24-32-5-13-8-31-8-54v-78c0-33 9-56 26-70 16-13 33-20 51-20 2 0 3 0 5 0 20 1 37 10 53 25 11 12 17 27 17 45z m-558 416h62v198l73 171h-68l-38-128-39 128h-68l78-171 0-198 0 0z m511-291c0 7-2 13-8 17-5 5-11 7-19 7h-2c-8 0-14-2-19-7-5-4-7-10-7-17l-2-31h56l1 31z m-192 28c-5 4-11 6-18 6-7 0-13-2-18-6-5-4-8-8-8-13v-147c0-5 3-10 8-13 5-4 11-6 18-6 7 0 13 2 18 6 5 3 8 8 8 13v147c0 5-3 9-8 13z" horiz-adv-x="1000" />

<glyph glyph-name="youtube-2" unicode="&#xe89b;" d="M929 621c-34 40-96 56-214 56h-430c-121 0-184-17-217-60-33-41-33-102-33-186v-161c0-164 39-247 250-247h430c103 0 159 14 196 49 38 36 54 95 54 198v161c0 89-2 150-36 190z m-297-293l-195-102c-4-2-9-4-14-4-5 0-11 2-15 5-9 5-15 15-15 25v204c0 10 6 20 15 25s20 6 29 1l195-101c10-5 16-15 16-27 0-11-6-21-16-26z" horiz-adv-x="1000" />

<glyph glyph-name="youtube-3" unicode="&#xe89c;" d="M961 549c0 3-10 73-40 105-36 40-75 44-95 46h-7c-127 9-317 11-320 11-1 0-193-2-318-14h-5c-22-2-61-6-96-46-31-33-41-103-41-106 0 0-9-80-9-160v-74c0-79 9-159 9-160 0-3 10-72 40-105 33-38 72-43 97-46 5 0 8 0 13-2 72-6 301-9 310-9 2 0 193 0 320 14h5c22 2 61 7 96 46 31 33 41 103 41 106 0 0 9 80 9 161v73c0 79-9 159-9 160z m-22-237c0-78-10-157-10-157-3-17-12-67-33-89-26-31-58-35-75-36h-5c-125-10-315-10-317-10-1 0-237 4-306 11-4 0-9 2-14 2-22 2-53 6-78 35-19 20-30 70-32 87 0 2-9 80-9 157v74c0 79 9 157 9 157 2 17 13 68 32 90 28 31 58 34 77 36h4c126 9 316 11 317 11 2 0 192-2 317-11h7c17-2 48-5 75-36 19-22 28-73 31-90 2-3 10-82 10-157l0-74 0 0z m-244 36l-298 175c-4 3-11 3-15 0-5-3-8-8-8-14v-341c0-6 3-11 8-14 3-2 4-2 7-2 4 0 5 0 8 2l298 166c5 3 8 8 8 14 0 7-3 11-8 14z m-290-153v287l251-148-251-139z" horiz-adv-x="1000" />

<glyph glyph-name="skype-1" unicode="&#xe89d;" d="M938 251c7 31 11 62 11 94 0 242-199 438-444 438-26 0-51-3-76-7-40 25-86 39-137 39-142 0-257-113-257-254 0-46 13-90 35-128-5-28-9-58-9-88 0-241 199-437 444-437 28 0 55 2 81 7 36-19 78-30 122-30 142 0 257 114 257 254 0 40-10 78-27 112z m-206-115c-20-28-50-51-90-67-39-16-85-24-138-24-64 0-117 11-159 33-30 15-54 37-73 64-19 26-28 53-28 79 0 16 6 29 18 41 12 11 28 17 46 17 16 0 29-5 39-14 11-8 19-21 26-37 8-18 17-33 26-45 9-11 21-21 37-28 16-7 38-11 64-11 37 0 67 7 90 23 22 14 33 32 33 54 0 17-6 31-17 42-13 11-28 19-48 25-20 7-47 13-81 20-46 10-85 22-116 35-32 13-58 31-77 55-19 23-28 53-28 87 0 33 10 63 30 89 20 25 49 45 86 59 37 13 80 20 130 20 40 0 74-5 104-14 29-9 53-21 73-36 19-15 34-31 43-47 9-17 14-34 14-50 0-16-6-30-18-42-13-13-28-19-46-19-16 0-29 4-38 12-8 7-17 18-27 34-11 21-24 37-39 49-15 11-40 17-75 17-31 0-57-7-76-19-19-12-28-26-28-42 0-10 3-18 9-25 6-8 15-15 26-20 12-6 24-11 36-14 12-3 33-8 62-15 35-7 68-16 98-25 29-9 55-21 76-34 21-14 38-31 50-52 12-21 18-47 18-77 0-36-11-69-32-98z" horiz-adv-x="1000" />

<glyph glyph-name="skype-2" unicode="&#xe89e;" d="M961 252c7 33 10 65 10 98 0 126-49 244-138 333-89 89-207 138-333 138-33 0-65-3-98-10-36 17-76 27-117 27-150 0-272-123-272-273 0-41 9-81 26-117-7-33-10-65-10-98 0-126 49-244 138-333 89-89 207-138 333-138 33 0 65 3 98 10 36-17 76-27 117-27 150 0 273 123 273 273 0 41-10 81-27 117z m-246-332c-35 0-69 8-100 24-4 3-9 4-14 4-2 0-4-1-6-1-31-7-63-11-95-11-228 0-414 186-414 414 0 32 4 64 11 95 2 7 1 14-3 20-16 31-24 65-24 100 0 119 96 215 215 215 35 0 69-8 100-24 6-4 13-4 20-3 31 7 63 11 95 11 228 0 414-186 414-414 0-32-4-64-11-95-1-7-1-14 3-20 16-31 24-65 24-100 0-119-96-215-215-215z m-370 555c0-52 71-96 155-96 55 0 107-15 146-42 43-29 67-69 67-112 0-43-24-82-67-111-39-27-91-42-146-42-55 0-107 15-146 42-43 29-67 68-67 111 0 16 13 29 29 29 16 0 29-13 29-29 0-52 71-96 155-96 84 0 156 44 156 96 0 52-72 96-156 96-55 0-107 15-146 42-43 29-67 69-67 112 0 43 24 83 67 112 39 26 91 41 146 41 55 0 107-15 146-41 43-29 67-69 67-112 0-16-13-29-29-29-16 0-29 13-29 29 0 52-71 96-155 96-84 0-155-44-155-96z" horiz-adv-x="1000" />

<glyph glyph-name="trash-1" unicode="&#xe89f;" d="M815 710h-165v30c0 50-40 90-90 90h-120c-50 0-90-40-90-90v-30h-165c-41 0-75-34-75-75v-60c0-17 13-30 30-30h720c17 0 30 13 30 30v60c0 41-34 75-75 75z m-225 0h-180v30c0 17 14 30 30 30h120c17 0 30-13 30-30v-30z m243-225h-666c-5 0-10-4-9-10l24-519c3-48 42-86 90-86h456c48 0 87 38 90 86l24 519c1 6-4 10-9 10z m-453-465c0-17-13-30-30-30s-30 13-30 30v390c0 17 13 30 30 30s30-13 30-30v-390z m150 0c0-17-13-30-30-30s-30 13-30 30v390c0 17 13 30 30 30s30-13 30-30v-390z m150 0c0-17-13-30-30-30s-30 13-30 30v390c0 17 13 30 30 30s30-13 30-30v-390z" horiz-adv-x="1000" />

<glyph glyph-name="trash-2" unicode="&#xe8a0;" d="M812 706h-164v30c0 49-40 89-89 89h-118c-49 0-89-40-89-89v-30h-163c-41 0-75-33-75-74v-104c0-16 14-30 30-30h16l26-538c2-47 41-85 89-85h450c48 0 87 38 89 85l26 538h16c16 0 30 14 30 30v104c0 41-34 74-74 74z m-401 30c0 16 13 29 30 29h118c17 0 30-13 30-29v-30h-178v30z m344-773c-1-16-14-28-30-28h-450c-16 0-29 12-30 28l-25 535h560l-25-535z m71 595c-9 0-614 0-652 0v74c0 8 6 15 15 15h623c8 0 14-7 14-15l0-74 0 0z m-356-534v385c0 17 14 30 30 30s30-13 30-30v-385c0-17-14-30-30-30-16 0-30 13-30 30z m149 0v385c0 17 13 30 29 30s30-13 30-30v-385c0-17-13-30-30-30s-29 13-29 30z m-297 0v385c0 17 13 30 30 30 16 0 29-13 29-30v-385c0-17-13-30-29-30-17 0-30 13-30 30z" horiz-adv-x="1000" />

<glyph glyph-name="rss-feed-1" unicode="&#xe8a1;" d="M336 33c0-83-68-151-152-151-84 0-152 68-152 151 0 84 68 152 152 152 84 0 152-68 152-152z m-230 507c-42 0-76-34-76-76 0-42 34-76 76-76 239 0 432-194 432-432 0-42 34-76 76-76s76 34 76 76c0 322-262 584-584 584z m1 280c-42 0-76-34-76-76 0-42 34-76 76-76 392 0 712-319 712-712 0-42 33-76 75-76 42 0 76 34 76 76 0 476-387 864-863 864z" horiz-adv-x="1000" />

<glyph glyph-name="rss-feed-2" unicode="&#xe8a2;" d="M159 142c-74 0-134-60-134-133s60-134 134-134c73 0 133 60 133 134 0 73-60 133-133 133z m0-211c-43 0-78 35-78 78 0 42 35 77 78 77s77-35 77-77c0-43-35-78-77-78z m314 390c-100 100-226 168-364 195-21 5-42-1-58-14-17-13-26-33-26-54v-69c0-33 23-61 55-69 93-20 178-67 245-135 68-67 115-152 135-245 8-32 36-55 69-55h69c21 0 41 9 54 26 13 16 19 37 14 58-27 137-94 262-193 362z m136-385c-2-2-5-5-11-5h-69c-7 0-13 5-14 11-23 103-75 198-150 273-75 75-170 127-273 150-6 1-11 7-11 14v69c0 6 3 9 5 11 2 1 5 3 9 3 1 0 2 0 3 0 127-26 243-88 335-180 92-92 153-208 179-334 1-6-2-10-3-12z m365 18c-14 110-47 217-96 316-48 97-111 185-187 262-78 79-167 144-266 193-101 51-209 85-321 99-20 3-40-3-55-16-15-14-24-33-24-53v-68c0-35 26-65 60-70 171-24 326-101 450-222 62-61 113-131 152-208 41-79 68-164 80-252 5-34 35-60 70-60h68c20 0 39 9 53 24 13 15 19 35 16 55z m-58-18c-2-2-5-5-11-5h-68c-7 0-13 5-14 12-14 94-42 185-86 269-42 83-97 157-163 223-132 129-298 212-481 238-7 1-12 7-12 14v68c0 6 3 9 5 11 1 1 5 3 9 3 1 0 1 0 2 0 106-14 208-46 303-94 93-46 177-108 251-182 72-73 131-156 177-248 47-94 77-194 91-298 1-6-2-9-3-11z" horiz-adv-x="1000" />

<glyph glyph-name="guarantee-1" unicode="&#xe8a3;" d="M810 236c38 59 61 129 61 204 0 204-167 370-371 370-204 0-370-166-370-370 0-75 22-145 60-204l-145-211 166 31 31-166 137 199c38-13 79-20 121-20s83 7 121 20l137-199 31 166 166-31-145 211z m-538-207l-17 90-91-17 61 89c29-32 64-59 103-80l-56-82z m228 94c-174 0-316 142-316 317s142 316 316 316c174 0 316-142 316-316s-142-317-316-317z m245-4l-16-90-57 82c39 21 74 48 103 80l61-89-91 17z m-91 459l39-38-259-259-126 127 38 38 88-88 220 220z" horiz-adv-x="1000" />

<glyph glyph-name="guarantee-2" unicode="&#xe8a4;" d="M872 440c0 205-167 372-372 372-205 0-372-167-372-372 0-205 167-372 372-372s372 167 372 372z m-438-159l-127 127 38 39 89-89 221 221 39-38-260-260z m-87-239l-106-154-31 167-167-32 113 165c48-65 114-117 191-146z m610-19l-167 32-31-167-105 154c76 29 142 81 190 146l113-165z" horiz-adv-x="1000" />

<glyph glyph-name="secure-payment-1" unicode="&#xe8a5;" d="M625 467c13-13 13-34 0-47l-139-139c-7-7-15-10-24-10l0 0c-9 0-17 3-23 10l-64 63c-6 6-9 15-9 24 0 8 3 17 9 23 7 6 15 10 24 10 9 0 17-4 23-10l40-40 116 116c7 6 15 10 24 10 9 0 17-4 23-10z m232-131c-24-93-61-176-110-248-61-90-142-161-239-211-2-1-5-2-8-2-3 0-5 1-8 2-97 50-178 121-239 211-49 72-86 155-110 248-41 158-31 288-30 293 0 6 4 12 9 14l370 180c5 3 11 3 16 0l370-180c5-2 9-8 9-14 1-5 11-135-30-293z m-138 41c0 121-98 219-219 219s-219-98-219-219c0-121 98-220 219-220s219 99 219 220z" horiz-adv-x="1000" />

<glyph glyph-name="secure-payment-2" unicode="&#xe8a6;" d="M460 329l155 154c14 15 37 15 51 0 14-14 14-36 0-50l-180-180c-14-14-37-14-51 0l-101 100c-14 14-14 37 0 51 15 14 37 14 51 0l75-75z m428 299v-178c0-245-148-465-374-557-9-4-19-4-28 0-226 92-374 312-374 557v178c0 14 9 28 22 33l352 146c9 4 19 4 28 0l352-146c13-5 22-19 22-33z m-72-24l-316 131-316-131v-154c0-214 127-402 316-485 194 86 316 277 316 485v154z" horiz-adv-x="1000" />

<glyph glyph-name="information-1" unicode="&#xe8a7;" d="M545 128c0-26-20-46-45-46s-45 20-45 46 20 45 45 45 45-20 45-45z m420 222c0-257-208-465-465-465-257 0-465 208-465 465 0 257 208 465 465 465 257 0 465-208 465-465z m-73 0c0 217-175 392-392 392-217 0-392-175-392-392 0-217 175-392 392-392 217 0 392 175 392 392z m-392 232c-80 0-145-66-145-146 0-20 16-36 36-36s36 16 36 36c0 40 33 73 73 73s73-33 73-73-33-72-73-72c-20 0-36-17-36-37v-90c0-21 16-37 36-37s36 16 36 37v59c63 16 109 73 109 140 0 80-65 146-145 146z" horiz-adv-x="1000" />

<glyph glyph-name="information-2" unicode="&#xe8a8;" d="M836 686c-90 90-209 139-336 139s-246-49-336-139c-90-90-139-209-139-336s49-246 139-336c90-90 209-139 336-139s246 49 336 139c90 90 139 209 139 336s-49 246-139 336z m-336-663c-16 0-30 14-30 30s14 30 30 30h0c16 0 30-13 30-30s-14-30-30-30z m95 305c-42-41-65-97-65-156 0-16-14-30-30-30-16 0-30 14-30 30 0 75 30 145 83 198 33 33 51 78 51 124 0 52-42 94-93 94h-7c-51 0-93-42-93-94v-10c0-17-13-30-30-30s-29 13-29 30v10c0 85 68 153 152 153h7c84 0 152-68 152-153 0-62-24-121-68-166z" horiz-adv-x="1000" />

<glyph glyph-name="information-3" unicode="&#xe8a9;" d="M662 14v-132h-324v132h72v382h-7c-36 0-65 30-65 66 0 36 29 66 65 66h7 177 3 1v-514h71z m-172 583c61 0 110 49 110 110s-49 111-110 111-110-50-110-111 49-110 110-110z" horiz-adv-x="1000" />

</font>
</defs>
</svg>
